<?xml version="1.0" encoding="utf-8" standalone="no"?>
<!DOCTYPE svg PUBLIC "-//W3C//DTD SVG 1.1//EN"
  "http://www.w3.org/Graphics/SVG/1.1/DTD/svg11.dtd">
<svg xmlns:xlink="http://www.w3.org/1999/xlink" width="453.539687pt" height="338.529375pt" viewBox="0 0 453.539687 338.529375" xmlns="http://www.w3.org/2000/svg" version="1.1">
 <metadata>
  <rdf:RDF xmlns:dc="http://purl.org/dc/elements/1.1/" xmlns:cc="http://creativecommons.org/ns#" xmlns:rdf="http://www.w3.org/1999/02/22-rdf-syntax-ns#">
   <cc:Work>
    <dc:type rdf:resource="http://purl.org/dc/dcmitype/StillImage"/>
    <dc:date>2025-06-22T16:01:35.120208</dc:date>
    <dc:format>image/svg+xml</dc:format>
    <dc:creator>
     <cc:Agent>
      <dc:title>Matplotlib v3.10.0, https://matplotlib.org/</dc:title>
     </cc:Agent>
    </dc:creator>
   </cc:Work>
  </rdf:RDF>
 </metadata>
 <defs>
  <style type="text/css">*{stroke-linejoin: round; stroke-linecap: butt}</style>
 </defs>
 <g id="figure_1">
  <g id="patch_1">
   <path d="M 0 338.529375 
L 453.539687 338.529375 
L 453.539687 0 
L 0 0 
z
" style="fill: #ffffff"/>
  </g>
  <g id="axes_1">
   <g id="patch_2">
    <path d="M 26.379688 315.32 
L 446.339688 315.32 
L 446.339688 21.6 
L 26.379688 21.6 
z
" style="fill: #ffffff"/>
   </g>
   <g id="matplotlib.axis_1">
    <g id="xtick_1">
     <g id="line2d_1">
      <defs>
       <path id="md35bee266f" d="M 0 0 
L 0 3.5 
" style="stroke: #000000; stroke-width: 0.8"/>
      </defs>
      <g>
       <use xlink:href="#md35bee266f" x="45.468778" y="315.32" style="stroke: #000000; stroke-width: 0.8"/>
      </g>
     </g>
     <g id="text_1">
      <!-- 0 -->
      <g transform="translate(42.453935 329.32) scale(0.1 -0.1)">
       <defs>
        <path id="Exo2-Regular-30" d="M 1926 4499 
Q 2496 4499 2829 4262 
Q 3162 4026 3306 3520 
Q 3450 3014 3450 2208 
Q 3450 1402 3306 896 
Q 3162 390 2829 153 
Q 2496 -83 1926 -83 
Q 1363 -83 1030 153 
Q 698 390 554 896 
Q 410 1402 410 2208 
Q 410 3014 554 3520 
Q 698 4026 1030 4262 
Q 1363 4499 1926 4499 
z
M 1926 4006 
Q 1651 4006 1465 3907 
Q 1280 3808 1168 3597 
Q 1056 3386 1008 3043 
Q 960 2701 960 2208 
Q 960 1722 1008 1376 
Q 1056 1030 1168 819 
Q 1280 608 1465 509 
Q 1651 410 1926 410 
Q 2202 410 2390 509 
Q 2579 608 2691 819 
Q 2803 1030 2851 1376 
Q 2899 1722 2899 2208 
Q 2899 2701 2851 3043 
Q 2803 3386 2691 3597 
Q 2579 3808 2390 3907 
Q 2202 4006 1926 4006 
z
" transform="scale(0.015625)"/>
       </defs>
       <use xlink:href="#Exo2-Regular-30"/>
      </g>
     </g>
    </g>
    <g id="xtick_2">
     <g id="line2d_2">
      <g>
       <use xlink:href="#md35bee266f" x="87.88898" y="315.32" style="stroke: #000000; stroke-width: 0.8"/>
      </g>
     </g>
     <g id="text_2">
      <!-- 3 -->
      <g transform="translate(85.109293 329.32) scale(0.1 -0.1)">
       <defs>
        <path id="Exo2-Regular-33" d="M 1651 4499 
Q 2138 4499 2435 4406 
Q 2733 4314 2873 4090 
Q 3014 3866 3014 3475 
Q 3014 3194 2956 2960 
Q 2899 2726 2761 2569 
Q 2624 2413 2368 2362 
L 2368 2336 
Q 2803 2266 2966 1974 
Q 3130 1683 3136 1229 
Q 3142 781 3008 489 
Q 2874 198 2566 57 
Q 2259 -83 1734 -83 
Q 1382 -83 1027 -48 
Q 672 -13 333 32 
L 371 486 
Q 589 467 790 451 
Q 992 435 1190 428 
Q 1389 422 1594 422 
Q 1952 422 2166 502 
Q 2381 582 2480 774 
Q 2579 966 2579 1286 
Q 2579 1530 2512 1712 
Q 2445 1894 2256 1996 
Q 2067 2099 1702 2099 
L 883 2099 
L 883 2541 
L 1702 2541 
Q 1965 2541 2121 2611 
Q 2278 2682 2355 2794 
Q 2432 2906 2454 3050 
Q 2477 3194 2477 3347 
Q 2470 3629 2387 3766 
Q 2304 3904 2109 3952 
Q 1914 4000 1574 4000 
Q 1261 4000 969 3984 
Q 678 3968 454 3949 
L 410 4384 
Q 736 4442 1040 4470 
Q 1344 4499 1651 4499 
z
" transform="scale(0.015625)"/>
       </defs>
       <use xlink:href="#Exo2-Regular-33"/>
      </g>
     </g>
    </g>
    <g id="xtick_3">
     <g id="line2d_3">
      <g>
       <use xlink:href="#md35bee266f" x="130.309182" y="315.32" style="stroke: #000000; stroke-width: 0.8"/>
      </g>
     </g>
     <g id="text_3">
      <!-- 6 -->
      <g transform="translate(127.449026 329.32) scale(0.1 -0.1)">
       <defs>
        <path id="Exo2-Regular-36" d="M 2138 4493 
Q 2272 4493 2515 4480 
Q 2758 4467 3027 4397 
L 2976 3987 
Q 2835 4000 2716 4006 
Q 2598 4013 2464 4013 
Q 2330 4013 2138 4013 
Q 1811 4013 1587 3942 
Q 1363 3872 1228 3673 
Q 1094 3475 1036 3091 
Q 979 2707 979 2080 
Q 979 1600 1004 1273 
Q 1030 947 1123 758 
Q 1216 570 1405 486 
Q 1594 403 1920 403 
Q 2298 403 2480 521 
Q 2662 640 2716 870 
Q 2771 1101 2771 1427 
Q 2771 1792 2704 2009 
Q 2637 2227 2457 2326 
Q 2278 2426 1952 2426 
Q 1741 2426 1561 2374 
Q 1382 2323 1196 2192 
Q 1011 2061 768 1824 
L 742 2106 
Q 954 2406 1146 2576 
Q 1338 2746 1565 2813 
Q 1792 2880 2099 2880 
Q 2566 2880 2828 2739 
Q 3091 2598 3200 2281 
Q 3309 1965 3309 1427 
Q 3309 1088 3257 809 
Q 3206 531 3059 332 
Q 2912 134 2637 28 
Q 2362 -77 1914 -77 
Q 1446 -77 1152 28 
Q 858 134 701 384 
Q 544 634 483 1053 
Q 422 1472 422 2099 
Q 422 2880 528 3353 
Q 634 3827 845 4073 
Q 1056 4320 1379 4406 
Q 1702 4493 2138 4493 
z
" transform="scale(0.015625)"/>
       </defs>
       <use xlink:href="#Exo2-Regular-36"/>
      </g>
     </g>
    </g>
    <g id="xtick_4">
     <g id="line2d_4">
      <g>
       <use xlink:href="#md35bee266f" x="172.729384" y="315.32" style="stroke: #000000; stroke-width: 0.8"/>
      </g>
     </g>
     <g id="text_4">
      <!-- 9 -->
      <g transform="translate(169.869228 329.32) scale(0.1 -0.1)">
       <defs>
        <path id="Exo2-Regular-39" d="M 1766 4493 
Q 2246 4493 2537 4381 
Q 2829 4269 2976 4013 
Q 3123 3757 3171 3328 
Q 3219 2899 3219 2259 
Q 3219 1517 3123 1056 
Q 3027 595 2825 348 
Q 2624 102 2297 12 
Q 1971 -77 1510 -77 
Q 1363 -77 1110 -64 
Q 858 -51 557 19 
L 608 435 
Q 762 422 883 416 
Q 1005 410 1149 410 
Q 1293 410 1510 410 
Q 1843 410 2067 486 
Q 2291 563 2425 764 
Q 2560 966 2617 1331 
Q 2675 1696 2675 2272 
Q 2675 2778 2652 3114 
Q 2630 3450 2547 3648 
Q 2464 3846 2278 3929 
Q 2093 4013 1760 4013 
Q 1395 4013 1206 3891 
Q 1018 3770 954 3539 
Q 890 3309 890 2976 
Q 890 2656 957 2435 
Q 1024 2214 1203 2099 
Q 1382 1984 1696 1984 
Q 1907 1984 2083 2038 
Q 2259 2093 2444 2224 
Q 2630 2355 2874 2586 
L 2899 2310 
Q 2694 2010 2499 1840 
Q 2304 1670 2080 1603 
Q 1856 1536 1549 1536 
Q 1094 1536 832 1721 
Q 570 1907 461 2233 
Q 352 2560 352 2976 
Q 352 3482 483 3818 
Q 614 4154 924 4323 
Q 1235 4493 1766 4493 
z
" transform="scale(0.015625)"/>
       </defs>
       <use xlink:href="#Exo2-Regular-39"/>
      </g>
     </g>
    </g>
    <g id="xtick_5">
     <g id="line2d_5">
      <g>
       <use xlink:href="#md35bee266f" x="215.149586" y="315.32" style="stroke: #000000; stroke-width: 0.8"/>
      </g>
     </g>
     <g id="text_5">
      <!-- 12 -->
      <g transform="translate(210.349586 329.32) scale(0.1 -0.1)">
       <defs>
        <path id="Exo2-Regular-31" d="M 1830 4416 
L 1830 0 
L 1267 0 
L 1267 3501 
Q 1267 3597 1273 3693 
Q 1280 3789 1299 3885 
L 218 3546 
L 141 3962 
L 1267 4416 
L 1830 4416 
z
" transform="scale(0.015625)"/>
        <path id="Exo2-Regular-32" d="M 1734 4493 
Q 2157 4493 2461 4422 
Q 2765 4352 2928 4147 
Q 3091 3942 3091 3539 
Q 3091 3264 3017 3021 
Q 2944 2778 2771 2518 
Q 2598 2259 2304 1933 
L 1037 518 
Q 1203 531 1392 537 
Q 1581 544 1754 544 
L 3251 544 
L 3251 0 
L 352 0 
L 352 352 
Q 352 422 371 483 
Q 390 544 435 595 
L 1715 2042 
Q 2138 2496 2336 2848 
Q 2534 3200 2522 3514 
Q 2515 3731 2416 3830 
Q 2317 3930 2134 3962 
Q 1952 3994 1696 3994 
Q 1491 3994 1305 3987 
Q 1120 3981 912 3958 
Q 704 3936 429 3891 
L 390 4326 
Q 691 4397 918 4432 
Q 1146 4467 1341 4480 
Q 1536 4493 1734 4493 
z
" transform="scale(0.015625)"/>
       </defs>
       <use xlink:href="#Exo2-Regular-31"/>
       <use xlink:href="#Exo2-Regular-32" transform="translate(39.799988 0)"/>
      </g>
     </g>
    </g>
    <g id="xtick_6">
     <g id="line2d_6">
      <g>
       <use xlink:href="#md35bee266f" x="257.569789" y="315.32" style="stroke: #000000; stroke-width: 0.8"/>
      </g>
     </g>
     <g id="text_6">
      <!-- 15 -->
      <g transform="translate(252.900257 329.32) scale(0.1 -0.1)">
       <defs>
        <path id="Exo2-Regular-35" d="M 2944 4416 
L 2918 3936 
L 1062 3936 
L 998 2733 
L 1472 2694 
Q 1907 2662 2211 2579 
Q 2515 2496 2707 2336 
Q 2899 2176 2985 1929 
Q 3072 1683 3072 1325 
Q 3072 1056 3017 806 
Q 2963 557 2812 358 
Q 2662 160 2380 41 
Q 2099 -77 1645 -77 
Q 1382 -77 1036 -38 
Q 691 0 333 83 
L 397 538 
Q 698 486 998 454 
Q 1299 422 1517 422 
Q 1939 422 2150 528 
Q 2362 634 2438 835 
Q 2515 1037 2522 1325 
Q 2528 1632 2448 1808 
Q 2368 1984 2192 2070 
Q 2016 2157 1725 2192 
Q 1434 2227 1011 2253 
L 717 2272 
Q 621 2285 560 2352 
Q 499 2419 506 2522 
L 608 4416 
L 2944 4416 
z
" transform="scale(0.015625)"/>
       </defs>
       <use xlink:href="#Exo2-Regular-31"/>
       <use xlink:href="#Exo2-Regular-35" transform="translate(39.799988 0)"/>
      </g>
     </g>
    </g>
    <g id="xtick_7">
     <g id="line2d_7">
      <g>
       <use xlink:href="#md35bee266f" x="299.989991" y="315.32" style="stroke: #000000; stroke-width: 0.8"/>
      </g>
     </g>
     <g id="text_7">
      <!-- 18 -->
      <g transform="translate(294.964991 329.32) scale(0.1 -0.1)">
       <defs>
        <path id="Exo2-Regular-38" d="M 1946 4480 
Q 2368 4480 2640 4409 
Q 2912 4339 3069 4198 
Q 3226 4058 3286 3837 
Q 3347 3616 3347 3315 
Q 3347 3027 3283 2809 
Q 3219 2592 3081 2461 
Q 2944 2330 2720 2304 
L 2720 2278 
Q 3002 2253 3158 2102 
Q 3315 1952 3379 1699 
Q 3443 1446 3443 1101 
Q 3443 698 3321 438 
Q 3200 179 2877 57 
Q 2554 -64 1946 -64 
Q 1350 -64 1024 57 
Q 698 179 570 438 
Q 442 698 442 1101 
Q 442 1446 509 1699 
Q 576 1952 736 2102 
Q 896 2253 1171 2278 
L 1171 2304 
Q 947 2330 806 2461 
Q 666 2592 602 2809 
Q 538 3027 538 3315 
Q 538 3616 602 3837 
Q 666 4058 822 4198 
Q 979 4339 1251 4409 
Q 1523 4480 1946 4480 
z
M 1958 2067 
Q 1658 2067 1466 2028 
Q 1274 1990 1165 1897 
Q 1056 1805 1014 1638 
Q 973 1472 973 1216 
Q 973 922 1053 746 
Q 1133 570 1347 496 
Q 1562 422 1952 422 
Q 2342 422 2547 496 
Q 2752 570 2829 746 
Q 2906 922 2906 1216 
Q 2906 1478 2864 1644 
Q 2822 1811 2720 1904 
Q 2618 1997 2432 2032 
Q 2246 2067 1958 2067 
z
M 1952 4026 
Q 1587 4026 1395 3955 
Q 1203 3885 1129 3718 
Q 1056 3552 1056 3264 
Q 1056 2963 1129 2800 
Q 1203 2637 1398 2576 
Q 1594 2515 1958 2515 
Q 2330 2515 2518 2579 
Q 2707 2643 2771 2806 
Q 2835 2970 2835 3264 
Q 2835 3552 2768 3718 
Q 2701 3885 2509 3955 
Q 2317 4026 1952 4026 
z
" transform="scale(0.015625)"/>
       </defs>
       <use xlink:href="#Exo2-Regular-31"/>
       <use xlink:href="#Exo2-Regular-38" transform="translate(39.799988 0)"/>
      </g>
     </g>
    </g>
    <g id="xtick_8">
     <g id="line2d_8">
      <g>
       <use xlink:href="#md35bee266f" x="342.410193" y="315.32" style="stroke: #000000; stroke-width: 0.8"/>
      </g>
     </g>
     <g id="text_8">
      <!-- 21 -->
      <g transform="translate(337.610193 329.32) scale(0.1 -0.1)">
       <use xlink:href="#Exo2-Regular-32"/>
       <use xlink:href="#Exo2-Regular-31" transform="translate(56.199997 0)"/>
      </g>
     </g>
    </g>
    <g id="xtick_9">
     <g id="line2d_9">
      <g>
       <use xlink:href="#md35bee266f" x="384.830395" y="315.32" style="stroke: #000000; stroke-width: 0.8"/>
      </g>
     </g>
     <g id="text_9">
      <!-- 24 -->
      <g transform="translate(378.945238 329.32) scale(0.1 -0.1)">
       <defs>
        <path id="Exo2-Regular-34" d="M 2112 4416 
L 877 1805 
Q 819 1677 873 1609 
Q 928 1542 1037 1542 
L 3654 1542 
L 3654 1139 
L 3066 1082 
L 723 1082 
Q 544 1082 422 1184 
Q 301 1286 265 1446 
Q 230 1606 301 1766 
L 1555 4416 
L 2112 4416 
z
M 3085 3571 
L 3085 0 
L 2554 0 
L 2554 2842 
L 2650 3571 
L 3085 3571 
z
" transform="scale(0.015625)"/>
       </defs>
       <use xlink:href="#Exo2-Regular-32"/>
       <use xlink:href="#Exo2-Regular-34" transform="translate(56.199997 0)"/>
      </g>
     </g>
    </g>
    <g id="xtick_10">
     <g id="line2d_10">
      <g>
       <use xlink:href="#md35bee266f" x="427.250597" y="315.32" style="stroke: #000000; stroke-width: 0.8"/>
      </g>
     </g>
     <g id="text_10">
      <!-- 27 -->
      <g transform="translate(421.880284 329.32) scale(0.1 -0.1)">
       <defs>
        <path id="Exo2-Regular-37" d="M 2746 4416 
Q 2880 4416 2957 4368 
Q 3034 4320 3056 4233 
Q 3078 4147 3040 4026 
L 1664 0 
L 1101 0 
L 2342 3610 
Q 2374 3699 2406 3779 
Q 2438 3859 2477 3936 
L 275 3936 
L 250 4416 
L 2746 4416 
z
" transform="scale(0.015625)"/>
       </defs>
       <use xlink:href="#Exo2-Regular-32"/>
       <use xlink:href="#Exo2-Regular-37" transform="translate(56.199997 0)"/>
      </g>
     </g>
    </g>
   </g>
   <g id="matplotlib.axis_2">
    <g id="ytick_1">
     <g id="line2d_11">
      <defs>
       <path id="macb9414288" d="M 0 0 
L -3.5 0 
" style="stroke: #000000; stroke-width: 0.8"/>
      </defs>
      <g>
       <use xlink:href="#macb9414288" x="26.379688" y="302.098633" style="stroke: #000000; stroke-width: 0.8"/>
      </g>
     </g>
     <g id="text_11">
      <!-- 0 -->
      <g transform="translate(13.35 305.598633) scale(0.1 -0.1)">
       <use xlink:href="#Exo2-Regular-30"/>
      </g>
     </g>
    </g>
    <g id="ytick_2">
     <g id="line2d_12">
      <g>
       <use xlink:href="#macb9414288" x="26.379688" y="254.06498" style="stroke: #000000; stroke-width: 0.8"/>
      </g>
     </g>
     <g id="text_12">
      <!-- 10 -->
      <g transform="translate(9.370313 257.56498) scale(0.1 -0.1)">
       <use xlink:href="#Exo2-Regular-31"/>
       <use xlink:href="#Exo2-Regular-30" transform="translate(39.799988 0)"/>
      </g>
     </g>
    </g>
    <g id="ytick_3">
     <g id="line2d_13">
      <g>
       <use xlink:href="#macb9414288" x="26.379688" y="206.031328" style="stroke: #000000; stroke-width: 0.8"/>
      </g>
     </g>
     <g id="text_13">
      <!-- 20 -->
      <g transform="translate(7.729688 209.531328) scale(0.1 -0.1)">
       <use xlink:href="#Exo2-Regular-32"/>
       <use xlink:href="#Exo2-Regular-30" transform="translate(56.199997 0)"/>
      </g>
     </g>
    </g>
    <g id="ytick_4">
     <g id="line2d_14">
      <g>
       <use xlink:href="#macb9414288" x="26.379688" y="157.997675" style="stroke: #000000; stroke-width: 0.8"/>
      </g>
     </g>
     <g id="text_14">
      <!-- 30 -->
      <g transform="translate(7.790625 161.497675) scale(0.1 -0.1)">
       <use xlink:href="#Exo2-Regular-33"/>
       <use xlink:href="#Exo2-Regular-30" transform="translate(55.599991 0)"/>
      </g>
     </g>
    </g>
    <g id="ytick_5">
     <g id="line2d_15">
      <g>
       <use xlink:href="#macb9414288" x="26.379688" y="109.964023" style="stroke: #000000; stroke-width: 0.8"/>
      </g>
     </g>
     <g id="text_15">
      <!-- 40 -->
      <g transform="translate(7.2 113.464023) scale(0.1 -0.1)">
       <use xlink:href="#Exo2-Regular-34"/>
       <use xlink:href="#Exo2-Regular-30" transform="translate(61.499985 0)"/>
      </g>
     </g>
    </g>
    <g id="ytick_6">
     <g id="line2d_16">
      <g>
       <use xlink:href="#macb9414288" x="26.379688" y="61.93037" style="stroke: #000000; stroke-width: 0.8"/>
      </g>
     </g>
     <g id="text_16">
      <!-- 50 -->
      <g transform="translate(7.990625 65.43037) scale(0.1 -0.1)">
       <use xlink:href="#Exo2-Regular-35"/>
       <use xlink:href="#Exo2-Regular-30" transform="translate(53.599991 0)"/>
      </g>
     </g>
    </g>
   </g>
   <g id="line2d_17">
    <path d="M 45.468778 294.647676 
L 59.608846 298.229128 
L 73.748913 299.095939 
L 87.88898 299.701745 
L 102.029048 299.946143 
L 116.169115 300.132189 
L 130.309182 300.291893 
L 144.44925 300.405296 
L 158.589317 300.396824 
L 172.729384 300.552982 
L 186.869452 300.531404 
L 201.009519 300.588244 
L 215.149586 300.681313 
L 229.289654 300.680281 
L 243.429721 300.709643 
L 257.569789 300.836078 
L 271.709856 300.895881 
L 285.849923 300.934432 
L 299.989991 300.974897 
L 314.130058 300.973319 
L 328.270125 300.987923 
L 342.410193 301.022 
L 356.55026 301.022999 
L 370.690327 301.07605 
L 384.830395 301.067022 
L 398.970462 301.104417 
L 413.110529 301.118239 
L 427.250597 301.129039 
" clip-path="url(#p4978b21996)" style="fill: none; stroke: #1f77b4; stroke-width: 1.5; stroke-linecap: square"/>
   </g>
   <g id="line2d_18">
    <path d="M 45.468778 34.950909 
L 59.608846 59.465142 
L 73.748913 173.707724 
L 87.88898 85.791686 
L 102.029048 147.408775 
L 116.169115 201.905506 
L 130.309182 243.92574 
L 144.44925 284.784185 
L 158.589317 275.502515 
L 172.729384 285.420309 
L 186.869452 286.326093 
L 201.009519 289.296277 
L 215.149586 287.926189 
L 229.289654 287.536339 
L 243.429721 287.387734 
L 257.569789 286.739705 
L 271.709856 288.378805 
L 285.849923 290.349769 
L 299.989991 290.395277 
L 314.130058 292.705559 
L 328.270125 292.429422 
L 342.410193 289.933463 
L 356.55026 291.258865 
L 370.690327 290.770703 
L 384.830395 292.50955 
L 398.970462 291.060498 
L 413.110529 291.365411 
L 427.250597 291.478738 
" clip-path="url(#p4978b21996)" style="fill: none; stroke: #ff7f0e; stroke-width: 1.5; stroke-linecap: square"/>
   </g>
   <g id="line2d_19">
    <path d="M 45.468778 301.552731 
L 59.608846 300.795672 
L 73.748913 300.443449 
L 87.88898 300.118743 
L 102.029048 299.839807 
L 116.169115 299.640414 
L 130.309182 299.529572 
L 144.44925 299.386388 
L 158.589317 299.340019 
L 172.729384 299.259041 
L 186.869452 299.228524 
L 201.009519 299.211131 
L 215.149586 299.127759 
L 229.289654 299.12815 
L 243.429721 299.103558 
L 257.569789 299.024005 
L 271.709856 298.990703 
L 285.849923 298.93978 
L 299.989991 298.908901 
L 314.130058 298.923001 
L 328.270125 298.882047 
L 342.410193 298.862457 
L 356.55026 298.843037 
L 370.690327 298.817005 
L 384.830395 298.816966 
L 398.970462 298.794797 
L 413.110529 298.779553 
L 427.250597 298.762912 
" clip-path="url(#p4978b21996)" style="fill: none; stroke: #2ca02c; stroke-width: 1.5; stroke-linecap: square"/>
   </g>
   <g id="line2d_20">
    <path d="M 45.468778 301.969091 
L 59.608846 301.920014 
L 73.748913 301.650797 
L 87.88898 301.591801 
L 102.029048 301.747014 
L 116.169115 301.806755 
L 130.309182 301.757287 
L 144.44925 301.690698 
L 158.589317 301.71407 
L 172.729384 301.503443 
L 186.869452 301.130065 
L 201.009519 301.373489 
L 215.149586 301.233774 
L 229.289654 301.109679 
L 243.429721 301.381245 
L 257.569789 301.273367 
L 271.709856 301.282126 
L 285.849923 301.324552 
L 299.989991 301.417468 
L 314.130058 301.326292 
L 328.270125 301.339217 
L 342.410193 301.435896 
L 356.55026 301.334301 
L 370.690327 301.312497 
L 384.830395 301.276491 
L 398.970462 301.381893 
L 413.110529 301.346413 
L 427.250597 301.313807 
" clip-path="url(#p4978b21996)" style="fill: none; stroke: #d62728; stroke-width: 1.5; stroke-linecap: square"/>
   </g>
   <g id="patch_3">
    <path d="M 26.379688 315.32 
L 26.379688 21.6 
" style="fill: none; stroke: #000000; stroke-width: 0.8; stroke-linejoin: miter; stroke-linecap: square"/>
   </g>
   <g id="patch_4">
    <path d="M 446.339688 315.32 
L 446.339688 21.6 
" style="fill: none; stroke: #000000; stroke-width: 0.8; stroke-linejoin: miter; stroke-linecap: square"/>
   </g>
   <g id="patch_5">
    <path d="M 26.379688 315.32 
L 446.339688 315.32 
" style="fill: none; stroke: #000000; stroke-width: 0.8; stroke-linejoin: miter; stroke-linecap: square"/>
   </g>
   <g id="patch_6">
    <path d="M 26.379688 21.6 
L 446.339688 21.6 
" style="fill: none; stroke: #000000; stroke-width: 0.8; stroke-linejoin: miter; stroke-linecap: square"/>
   </g>
   <g id="text_17">
    <!-- efficientnetb0_Linknet_BS_32_LR_0.002 -->
    <g transform="translate(128.2125 15.6) scale(0.12 -0.12)">
     <defs>
      <path id="Exo2-Regular-65" d="M 1779 3194 
Q 2483 3194 2800 2938 
Q 3117 2682 3117 2176 
Q 3123 1760 2944 1526 
Q 2765 1293 2374 1293 
L 557 1293 
L 557 1715 
L 2234 1715 
Q 2445 1715 2509 1859 
Q 2573 2003 2573 2176 
Q 2566 2477 2393 2605 
Q 2221 2733 1805 2733 
Q 1466 2733 1270 2633 
Q 1075 2534 995 2288 
Q 915 2042 915 1600 
Q 915 1101 1014 838 
Q 1114 576 1331 480 
Q 1549 384 1907 384 
Q 2157 384 2454 406 
Q 2752 429 2989 461 
L 3046 96 
Q 2899 38 2684 0 
Q 2470 -38 2243 -57 
Q 2016 -77 1837 -77 
Q 1299 -77 972 86 
Q 646 250 496 611 
Q 346 973 346 1568 
Q 346 2182 496 2537 
Q 646 2893 963 3043 
Q 1280 3194 1779 3194 
z
" transform="scale(0.015625)"/>
      <path id="Exo2-Regular-66" d="M 1651 4589 
Q 1754 4589 1914 4585 
Q 2074 4582 2240 4572 
Q 2406 4563 2528 4544 
L 2483 4141 
L 1843 4141 
Q 1536 4141 1411 4019 
Q 1286 3898 1286 3616 
L 1286 0 
L 742 0 
L 742 3674 
Q 742 3968 832 4169 
Q 922 4371 1120 4480 
Q 1318 4589 1651 4589 
z
M 2285 3117 
L 2285 2688 
L 179 2688 
L 179 3085 
L 774 3117 
L 2285 3117 
z
" transform="scale(0.015625)"/>
      <path id="Exo2-Regular-69" d="M 1062 3117 
L 1062 0 
L 525 0 
L 525 3117 
L 1062 3117 
z
M 922 4442 
Q 1088 4442 1088 4275 
L 1088 3910 
Q 1088 3744 922 3744 
L 666 3744 
Q 499 3744 499 3910 
L 499 4275 
Q 499 4442 666 4442 
L 922 4442 
z
" transform="scale(0.015625)"/>
      <path id="Exo2-Regular-63" d="M 1830 3194 
Q 1971 3194 2144 3181 
Q 2317 3168 2499 3136 
Q 2682 3104 2835 3046 
L 2765 2694 
Q 2554 2714 2320 2723 
Q 2086 2733 1920 2733 
Q 1549 2733 1331 2630 
Q 1114 2528 1018 2272 
Q 922 2016 922 1562 
Q 922 1107 1018 848 
Q 1114 589 1331 486 
Q 1549 384 1920 384 
Q 2016 384 2169 390 
Q 2323 397 2499 409 
Q 2675 422 2835 448 
L 2893 83 
Q 2656 0 2377 -38 
Q 2099 -77 1824 -77 
Q 1286 -77 960 83 
Q 634 243 490 601 
Q 346 960 346 1562 
Q 346 2163 493 2521 
Q 640 2880 966 3037 
Q 1293 3194 1830 3194 
z
" transform="scale(0.015625)"/>
      <path id="Exo2-Regular-6e" d="M 2394 3194 
Q 3238 3194 3238 2336 
L 3238 0 
L 2694 0 
L 2694 2182 
Q 2694 2496 2592 2614 
Q 2490 2733 2246 2733 
Q 1958 2733 1670 2592 
Q 1382 2451 986 2208 
L 960 2598 
Q 1325 2880 1683 3037 
Q 2042 3194 2394 3194 
z
M 960 3117 
L 1005 2522 
L 1043 2426 
L 1043 0 
L 499 0 
L 499 3117 
L 960 3117 
z
" transform="scale(0.015625)"/>
      <path id="Exo2-Regular-74" d="M 1280 4038 
L 1280 858 
Q 1280 634 1376 538 
Q 1472 442 1702 442 
L 2176 442 
L 2240 26 
Q 2138 0 2003 -19 
Q 1869 -38 1741 -48 
Q 1613 -58 1536 -58 
Q 1146 -58 941 160 
Q 736 378 736 787 
L 736 4038 
L 1280 4038 
z
M 2272 3117 
L 2272 2688 
L 173 2688 
L 173 3085 
L 787 3117 
L 2272 3117 
z
" transform="scale(0.015625)"/>
      <path id="Exo2-Regular-62" d="M 2176 3194 
Q 2752 3194 3027 2819 
Q 3302 2445 3302 1568 
Q 3302 1165 3235 857 
Q 3168 550 3011 342 
Q 2854 134 2588 28 
Q 2323 -77 1920 -77 
Q 1760 -77 1574 -64 
Q 1389 -51 1197 -22 
Q 1005 6 822 48 
Q 640 90 486 147 
L 922 518 
Q 1094 467 1264 435 
Q 1434 403 1597 393 
Q 1760 384 1907 384 
Q 2208 390 2390 499 
Q 2573 608 2656 867 
Q 2739 1126 2739 1568 
Q 2739 1997 2675 2249 
Q 2611 2502 2448 2611 
Q 2285 2720 1984 2720 
Q 1728 2720 1497 2582 
Q 1267 2445 966 2208 
L 928 2573 
Q 1120 2778 1321 2915 
Q 1523 3053 1740 3123 
Q 1958 3194 2176 3194 
z
M 1030 4480 
L 1030 3315 
Q 1030 3117 1020 2950 
Q 1011 2784 973 2611 
L 1024 2522 
L 1030 122 
L 486 147 
L 486 4480 
L 1030 4480 
z
" transform="scale(0.015625)"/>
      <path id="Exo2-Regular-5f" d="M 2803 0 
L 2803 -416 
L 0 -416 
L 0 0 
L 2803 0 
z
" transform="scale(0.015625)"/>
      <path id="Exo2-Regular-4c" d="M 1101 4416 
L 1101 896 
Q 1101 678 1206 576 
Q 1312 474 1530 474 
L 3123 474 
L 3149 38 
Q 2733 6 2301 0 
Q 1869 -6 1440 -6 
Q 954 -6 749 230 
Q 544 467 544 826 
L 544 4416 
L 1101 4416 
z
" transform="scale(0.015625)"/>
      <path id="Exo2-Regular-6b" d="M 3046 3117 
L 2067 1971 
Q 2022 1914 1958 1853 
Q 1894 1792 1850 1760 
L 1850 1747 
Q 1894 1715 1958 1641 
Q 2022 1568 2067 1498 
L 3149 0 
L 2515 0 
L 1280 1786 
L 2413 3117 
L 3046 3117 
z
M 1043 4480 
L 1050 2490 
Q 1050 2291 1034 2121 
Q 1018 1952 986 1766 
Q 1018 1587 1030 1408 
Q 1043 1229 1043 1062 
L 1043 0 
L 499 0 
L 499 4480 
L 1043 4480 
z
M 1574 1958 
L 1574 1562 
L 851 1562 
L 851 1958 
L 1574 1958 
z
" transform="scale(0.015625)"/>
      <path id="Exo2-Regular-42" d="M 1990 4467 
Q 2534 4467 2854 4368 
Q 3174 4269 3318 4019 
Q 3462 3770 3462 3315 
Q 3462 2842 3286 2592 
Q 3110 2342 2714 2304 
L 2714 2278 
Q 3206 2234 3401 1933 
Q 3597 1632 3597 1101 
Q 3597 646 3456 396 
Q 3315 147 3004 48 
Q 2694 -51 2189 -51 
Q 1811 -51 1539 -48 
Q 1267 -45 1036 -32 
Q 806 -19 557 0 
L 646 448 
Q 787 442 1180 435 
Q 1574 429 2099 429 
Q 2451 429 2652 489 
Q 2854 550 2940 716 
Q 3027 883 3027 1197 
Q 3027 1542 2937 1728 
Q 2848 1914 2637 1990 
Q 2426 2067 2061 2074 
L 640 2074 
L 640 2502 
L 2054 2502 
Q 2374 2509 2563 2569 
Q 2752 2630 2835 2793 
Q 2918 2957 2918 3251 
Q 2918 3552 2828 3712 
Q 2739 3872 2531 3929 
Q 2323 3987 1965 3987 
Q 1651 3987 1401 3987 
Q 1152 3987 963 3984 
Q 774 3981 646 3968 
L 557 4416 
Q 781 4442 982 4451 
Q 1184 4461 1424 4464 
Q 1664 4467 1990 4467 
z
M 1107 4416 
L 1107 0 
L 557 0 
L 557 4416 
L 1107 4416 
z
" transform="scale(0.015625)"/>
      <path id="Exo2-Regular-53" d="M 1786 4493 
Q 2099 4486 2432 4460 
Q 2765 4435 3098 4365 
L 3059 3955 
Q 2784 3968 2451 3977 
Q 2118 3987 1811 3987 
Q 1574 3987 1404 3971 
Q 1235 3955 1126 3894 
Q 1018 3834 970 3696 
Q 922 3558 922 3315 
Q 922 2950 1053 2806 
Q 1184 2662 1478 2592 
L 2374 2368 
Q 2886 2246 3075 1942 
Q 3264 1638 3264 1126 
Q 3264 742 3177 505 
Q 3091 269 2912 144 
Q 2733 19 2451 -29 
Q 2170 -77 1786 -77 
Q 1568 -77 1219 -57 
Q 870 -38 416 45 
L 454 461 
Q 832 448 1062 438 
Q 1293 429 1459 429 
Q 1626 429 1805 429 
Q 2144 429 2339 480 
Q 2534 531 2614 684 
Q 2694 838 2694 1139 
Q 2694 1395 2636 1536 
Q 2579 1677 2454 1750 
Q 2330 1824 2138 1869 
L 1222 2099 
Q 742 2221 547 2521 
Q 352 2822 352 3328 
Q 352 3712 438 3945 
Q 525 4179 701 4297 
Q 877 4416 1145 4454 
Q 1414 4493 1786 4493 
z
" transform="scale(0.015625)"/>
      <path id="Exo2-Regular-52" d="M 2080 4474 
Q 2592 4474 2905 4362 
Q 3219 4250 3363 3974 
Q 3507 3699 3507 3200 
Q 3507 2842 3424 2602 
Q 3341 2362 3165 2230 
Q 2989 2099 2694 2061 
L 2694 2029 
Q 2803 2003 2908 1923 
Q 3014 1843 3104 1712 
Q 3194 1581 3238 1395 
L 3667 0 
L 3066 0 
L 2675 1382 
Q 2592 1632 2451 1737 
Q 2310 1843 2086 1843 
Q 1696 1843 1408 1846 
Q 1120 1850 928 1856 
Q 736 1862 621 1862 
L 640 2330 
L 2067 2330 
Q 2394 2336 2582 2406 
Q 2771 2477 2854 2659 
Q 2938 2842 2938 3168 
Q 2938 3494 2854 3670 
Q 2771 3846 2582 3916 
Q 2394 3987 2067 3987 
Q 1542 3987 1161 3980 
Q 781 3974 646 3974 
L 557 4416 
Q 800 4442 1011 4454 
Q 1222 4467 1475 4470 
Q 1728 4474 2080 4474 
z
M 1114 4416 
L 1114 0 
L 557 0 
L 557 4416 
L 1114 4416 
z
" transform="scale(0.015625)"/>
      <path id="Exo2-Regular-2e" d="M 819 755 
Q 934 755 979 710 
Q 1024 666 1024 550 
L 1024 205 
Q 1024 90 979 45 
Q 934 0 819 0 
L 640 0 
Q 531 0 483 45 
Q 435 90 435 205 
L 435 550 
Q 435 666 483 710 
Q 531 755 640 755 
L 819 755 
z
" transform="scale(0.015625)"/>
     </defs>
     <use xlink:href="#Exo2-Regular-65"/>
     <use xlink:href="#Exo2-Regular-66" transform="translate(53.699997 0)"/>
     <use xlink:href="#Exo2-Regular-66" transform="translate(91.699982 0)"/>
     <use xlink:href="#Exo2-Regular-69" transform="translate(129.699966 0)"/>
     <use xlink:href="#Exo2-Regular-63" transform="translate(154.499954 0)"/>
     <use xlink:href="#Exo2-Regular-69" transform="translate(203.399948 0)"/>
     <use xlink:href="#Exo2-Regular-65" transform="translate(228.199936 0)"/>
     <use xlink:href="#Exo2-Regular-6e" transform="translate(281.899933 0)"/>
     <use xlink:href="#Exo2-Regular-74" transform="translate(339.999924 0)"/>
     <use xlink:href="#Exo2-Regular-6e" transform="translate(378.099915 0)"/>
     <use xlink:href="#Exo2-Regular-65" transform="translate(436.199905 0)"/>
     <use xlink:href="#Exo2-Regular-74" transform="translate(489.899902 0)"/>
     <use xlink:href="#Exo2-Regular-62" transform="translate(527.999893 0)"/>
     <use xlink:href="#Exo2-Regular-30" transform="translate(584.999878 0)"/>
     <use xlink:href="#Exo2-Regular-5f" transform="translate(645.299866 0)"/>
     <use xlink:href="#Exo2-Regular-4c" transform="translate(689.099854 0)"/>
     <use xlink:href="#Exo2-Regular-69" transform="translate(740.499847 0)"/>
     <use xlink:href="#Exo2-Regular-6e" transform="translate(765.299835 0)"/>
     <use xlink:href="#Exo2-Regular-6b" transform="translate(823.399826 0)"/>
     <use xlink:href="#Exo2-Regular-6e" transform="translate(874.29982 0)"/>
     <use xlink:href="#Exo2-Regular-65" transform="translate(932.399811 0)"/>
     <use xlink:href="#Exo2-Regular-74" transform="translate(986.099808 0)"/>
     <use xlink:href="#Exo2-Regular-5f" transform="translate(1024.199799 0)"/>
     <use xlink:href="#Exo2-Regular-42" transform="translate(1067.999786 0)"/>
     <use xlink:href="#Exo2-Regular-53" transform="translate(1129.999771 0)"/>
     <use xlink:href="#Exo2-Regular-5f" transform="translate(1186.099762 0)"/>
     <use xlink:href="#Exo2-Regular-33" transform="translate(1229.89975 0)"/>
     <use xlink:href="#Exo2-Regular-32" transform="translate(1285.499741 0)"/>
     <use xlink:href="#Exo2-Regular-5f" transform="translate(1341.699738 0)"/>
     <use xlink:href="#Exo2-Regular-4c" transform="translate(1385.499725 0)"/>
     <use xlink:href="#Exo2-Regular-52" transform="translate(1436.899719 0)"/>
     <use xlink:href="#Exo2-Regular-5f" transform="translate(1498.699707 0)"/>
     <use xlink:href="#Exo2-Regular-30" transform="translate(1542.499695 0)"/>
     <use xlink:href="#Exo2-Regular-2e" transform="translate(1602.799683 0)"/>
     <use xlink:href="#Exo2-Regular-30" transform="translate(1625.699677 0)"/>
     <use xlink:href="#Exo2-Regular-30" transform="translate(1685.999664 0)"/>
     <use xlink:href="#Exo2-Regular-32" transform="translate(1746.299652 0)"/>
    </g>
   </g>
   <g id="legend_1">
    <g id="patch_7">
     <path d="M 340.242813 85.6375 
L 439.339688 85.6375 
Q 441.339688 85.6375 441.339688 83.6375 
L 441.339688 28.6 
Q 441.339688 26.6 439.339688 26.6 
L 340.242813 26.6 
Q 338.242813 26.6 338.242813 28.6 
L 338.242813 83.6375 
Q 338.242813 85.6375 340.242813 85.6375 
z
" style="fill: #ffffff; opacity: 0.8; stroke: #cccccc; stroke-linejoin: miter"/>
    </g>
    <g id="line2d_21">
     <path d="M 342.242813 34.1 
L 352.242813 34.1 
L 362.242813 34.1 
" style="fill: none; stroke: #1f77b4; stroke-width: 1.5; stroke-linecap: square"/>
    </g>
    <g id="text_18">
     <!-- train loss -->
     <g transform="translate(370.242813 37.6) scale(0.1 -0.1)">
      <defs>
       <path id="Exo2-Regular-72" d="M 922 3117 
L 992 2522 
L 1043 2426 
L 1043 0 
L 499 0 
L 499 3117 
L 922 3117 
z
M 2451 3194 
L 2387 2682 
L 2208 2682 
Q 1933 2682 1657 2570 
Q 1382 2458 986 2253 
L 941 2592 
Q 1286 2874 1635 3034 
Q 1984 3194 2310 3194 
L 2451 3194 
z
" transform="scale(0.015625)"/>
       <path id="Exo2-Regular-61" d="M 1971 3194 
Q 2317 3194 2557 3101 
Q 2797 3008 2918 2790 
Q 3040 2573 3040 2195 
L 3040 0 
L 2611 0 
L 2528 678 
L 2490 749 
L 2490 2195 
Q 2490 2483 2358 2608 
Q 2227 2733 1856 2733 
Q 1613 2733 1245 2707 
Q 877 2682 518 2650 
L 467 3053 
Q 685 3091 944 3123 
Q 1203 3155 1472 3174 
Q 1741 3194 1971 3194 
z
M 2784 1920 
L 2778 1510 
L 1286 1504 
Q 1062 1498 972 1386 
Q 883 1274 883 1075 
L 883 877 
Q 883 634 998 522 
Q 1114 410 1370 410 
Q 1549 410 1776 477 
Q 2003 544 2233 685 
Q 2464 826 2656 1043 
L 2656 640 
Q 2586 550 2454 432 
Q 2323 314 2140 202 
Q 1958 90 1737 16 
Q 1517 -58 1261 -58 
Q 986 -58 774 41 
Q 563 141 444 336 
Q 326 531 326 813 
L 326 1152 
Q 326 1517 553 1718 
Q 781 1920 1190 1920 
L 2784 1920 
z
" transform="scale(0.015625)"/>
       <path id="Exo2-Regular-20" transform="scale(0.015625)"/>
       <path id="Exo2-Regular-6c" d="M 1043 4480 
L 1043 858 
Q 1043 653 1155 547 
Q 1267 442 1472 442 
L 1773 442 
L 1837 26 
Q 1779 0 1673 -19 
Q 1568 -38 1456 -48 
Q 1344 -58 1267 -58 
Q 922 -58 714 147 
Q 506 352 506 736 
L 506 4480 
L 1043 4480 
z
" transform="scale(0.015625)"/>
       <path id="Exo2-Regular-6f" d="M 1818 3194 
Q 2355 3194 2678 3034 
Q 3002 2874 3142 2512 
Q 3283 2150 3283 1555 
Q 3283 960 3142 598 
Q 3002 237 2678 77 
Q 2355 -83 1818 -83 
Q 1286 -83 963 77 
Q 640 237 496 598 
Q 352 960 352 1555 
Q 352 2150 496 2512 
Q 640 2874 963 3034 
Q 1286 3194 1818 3194 
z
M 1818 2733 
Q 1478 2733 1283 2627 
Q 1088 2522 1005 2266 
Q 922 2010 922 1555 
Q 922 1101 1005 845 
Q 1088 589 1283 483 
Q 1478 378 1818 378 
Q 2157 378 2355 483 
Q 2554 589 2637 845 
Q 2720 1101 2720 1555 
Q 2720 2010 2637 2266 
Q 2554 2522 2355 2627 
Q 2157 2733 1818 2733 
z
" transform="scale(0.015625)"/>
       <path id="Exo2-Regular-73" d="M 1536 3194 
Q 1741 3194 1971 3181 
Q 2202 3168 2429 3149 
Q 2656 3130 2848 3098 
L 2803 2701 
Q 2509 2714 2211 2723 
Q 1914 2733 1619 2733 
Q 1331 2739 1164 2720 
Q 998 2701 924 2617 
Q 851 2534 851 2336 
Q 851 2093 966 2016 
Q 1082 1939 1306 1888 
L 2214 1683 
Q 2586 1594 2762 1408 
Q 2938 1222 2938 826 
Q 2938 442 2794 250 
Q 2650 58 2355 -6 
Q 2061 -70 1606 -70 
Q 1440 -70 1110 -57 
Q 781 -45 384 19 
L 422 416 
Q 576 410 749 400 
Q 922 390 1110 390 
Q 1299 390 1498 390 
Q 1850 390 2048 422 
Q 2246 454 2329 547 
Q 2413 640 2413 826 
Q 2413 1056 2278 1133 
Q 2144 1210 1920 1261 
L 1024 1466 
Q 768 1530 614 1635 
Q 461 1741 390 1910 
Q 320 2080 320 2336 
Q 320 2701 448 2886 
Q 576 3072 845 3136 
Q 1114 3200 1536 3194 
z
" transform="scale(0.015625)"/>
      </defs>
      <use xlink:href="#Exo2-Regular-74"/>
      <use xlink:href="#Exo2-Regular-72" transform="translate(38.099991 0)"/>
      <use xlink:href="#Exo2-Regular-61" transform="translate(78.199982 0)"/>
      <use xlink:href="#Exo2-Regular-69" transform="translate(133.099976 0)"/>
      <use xlink:href="#Exo2-Regular-6e" transform="translate(157.899963 0)"/>
      <use xlink:href="#Exo2-Regular-20" transform="translate(215.999954 0)"/>
      <use xlink:href="#Exo2-Regular-6c" transform="translate(238.299942 0)"/>
      <use xlink:href="#Exo2-Regular-6f" transform="translate(267.999939 0)"/>
      <use xlink:href="#Exo2-Regular-73" transform="translate(324.799927 0)"/>
      <use xlink:href="#Exo2-Regular-73" transform="translate(375.599915 0)"/>
     </g>
    </g>
    <g id="line2d_22">
     <path d="M 342.242813 48.109375 
L 352.242813 48.109375 
L 362.242813 48.109375 
" style="fill: none; stroke: #ff7f0e; stroke-width: 1.5; stroke-linecap: square"/>
    </g>
    <g id="text_19">
     <!-- val loss -->
     <g transform="translate(370.242813 51.609375) scale(0.1 -0.1)">
      <defs>
       <path id="Exo2-Regular-76" d="M 3270 3117 
L 2131 134 
Q 2106 70 2058 35 
Q 2010 0 1939 0 
L 1446 0 
Q 1382 0 1331 35 
Q 1280 70 1254 134 
L 115 3117 
L 698 3117 
L 1466 934 
Q 1517 800 1561 659 
Q 1606 518 1651 390 
L 1734 390 
Q 1786 525 1834 662 
Q 1882 800 1926 934 
L 2694 3117 
L 3270 3117 
z
" transform="scale(0.015625)"/>
      </defs>
      <use xlink:href="#Exo2-Regular-76"/>
      <use xlink:href="#Exo2-Regular-61" transform="translate(52.999985 0)"/>
      <use xlink:href="#Exo2-Regular-6c" transform="translate(107.899979 0)"/>
      <use xlink:href="#Exo2-Regular-20" transform="translate(137.599976 0)"/>
      <use xlink:href="#Exo2-Regular-6c" transform="translate(159.899963 0)"/>
      <use xlink:href="#Exo2-Regular-6f" transform="translate(189.59996 0)"/>
      <use xlink:href="#Exo2-Regular-73" transform="translate(246.399948 0)"/>
      <use xlink:href="#Exo2-Regular-73" transform="translate(297.199936 0)"/>
     </g>
    </g>
    <g id="line2d_23">
     <path d="M 342.242813 62.11875 
L 352.242813 62.11875 
L 362.242813 62.11875 
" style="fill: none; stroke: #2ca02c; stroke-width: 1.5; stroke-linecap: square"/>
    </g>
    <g id="text_20">
     <!-- train iou_score -->
     <g transform="translate(370.242813 65.61875) scale(0.1 -0.1)">
      <defs>
       <path id="Exo2-Regular-75" d="M 1024 3117 
L 1024 928 
Q 1018 634 1133 512 
Q 1248 390 1517 390 
Q 1779 390 2038 515 
Q 2298 640 2662 877 
L 2733 499 
Q 2368 211 2025 64 
Q 1683 -83 1331 -83 
Q 480 -83 480 774 
L 480 3117 
L 1024 3117 
z
M 3149 3117 
L 3149 0 
L 2714 0 
L 2662 589 
L 2605 685 
L 2605 3117 
L 3149 3117 
z
" transform="scale(0.015625)"/>
      </defs>
      <use xlink:href="#Exo2-Regular-74"/>
      <use xlink:href="#Exo2-Regular-72" transform="translate(38.099991 0)"/>
      <use xlink:href="#Exo2-Regular-61" transform="translate(78.199982 0)"/>
      <use xlink:href="#Exo2-Regular-69" transform="translate(133.099976 0)"/>
      <use xlink:href="#Exo2-Regular-6e" transform="translate(157.899963 0)"/>
      <use xlink:href="#Exo2-Regular-20" transform="translate(215.999954 0)"/>
      <use xlink:href="#Exo2-Regular-69" transform="translate(238.299942 0)"/>
      <use xlink:href="#Exo2-Regular-6f" transform="translate(263.09993 0)"/>
      <use xlink:href="#Exo2-Regular-75" transform="translate(319.899918 0)"/>
      <use xlink:href="#Exo2-Regular-5f" transform="translate(376.899902 0)"/>
      <use xlink:href="#Exo2-Regular-73" transform="translate(420.69989 0)"/>
      <use xlink:href="#Exo2-Regular-63" transform="translate(471.499878 0)"/>
      <use xlink:href="#Exo2-Regular-6f" transform="translate(520.399872 0)"/>
      <use xlink:href="#Exo2-Regular-72" transform="translate(577.19986 0)"/>
      <use xlink:href="#Exo2-Regular-65" transform="translate(617.29985 0)"/>
     </g>
    </g>
    <g id="line2d_24">
     <path d="M 342.242813 76.128125 
L 352.242813 76.128125 
L 362.242813 76.128125 
" style="fill: none; stroke: #d62728; stroke-width: 1.5; stroke-linecap: square"/>
    </g>
    <g id="text_21">
     <!-- val iou_score -->
     <g transform="translate(370.242813 79.628125) scale(0.1 -0.1)">
      <use xlink:href="#Exo2-Regular-76"/>
      <use xlink:href="#Exo2-Regular-61" transform="translate(52.999985 0)"/>
      <use xlink:href="#Exo2-Regular-6c" transform="translate(107.899979 0)"/>
      <use xlink:href="#Exo2-Regular-20" transform="translate(137.599976 0)"/>
      <use xlink:href="#Exo2-Regular-69" transform="translate(159.899963 0)"/>
      <use xlink:href="#Exo2-Regular-6f" transform="translate(184.699951 0)"/>
      <use xlink:href="#Exo2-Regular-75" transform="translate(241.499939 0)"/>
      <use xlink:href="#Exo2-Regular-5f" transform="translate(298.499924 0)"/>
      <use xlink:href="#Exo2-Regular-73" transform="translate(342.299911 0)"/>
      <use xlink:href="#Exo2-Regular-63" transform="translate(393.099899 0)"/>
      <use xlink:href="#Exo2-Regular-6f" transform="translate(441.999893 0)"/>
      <use xlink:href="#Exo2-Regular-72" transform="translate(498.799881 0)"/>
      <use xlink:href="#Exo2-Regular-65" transform="translate(538.899872 0)"/>
     </g>
    </g>
   </g>
  </g>
 </g>
 <defs>
  <clipPath id="p4978b21996">
   <rect x="26.379688" y="21.6" width="419.96" height="293.72"/>
  </clipPath>
 </defs>
</svg>
