<?xml version="1.0" encoding="utf-8" standalone="no"?>
<!DOCTYPE svg PUBLIC "-//W3C//DTD SVG 1.1//EN"
  "http://www.w3.org/Graphics/SVG/1.1/DTD/svg11.dtd">
<svg xmlns:xlink="http://www.w3.org/1999/xlink" width="453.64pt" height="338.529375pt" viewBox="0 0 453.64 338.529375" xmlns="http://www.w3.org/2000/svg" version="1.1">
 <metadata>
  <rdf:RDF xmlns:dc="http://purl.org/dc/elements/1.1/" xmlns:cc="http://creativecommons.org/ns#" xmlns:rdf="http://www.w3.org/1999/02/22-rdf-syntax-ns#">
   <cc:Work>
    <dc:type rdf:resource="http://purl.org/dc/dcmitype/StillImage"/>
    <dc:date>2025-06-22T13:05:55.787522</dc:date>
    <dc:format>image/svg+xml</dc:format>
    <dc:creator>
     <cc:Agent>
      <dc:title>Matplotlib v3.10.0, https://matplotlib.org/</dc:title>
     </cc:Agent>
    </dc:creator>
   </cc:Work>
  </rdf:RDF>
 </metadata>
 <defs>
  <style type="text/css">*{stroke-linejoin: round; stroke-linecap: butt}</style>
 </defs>
 <g id="figure_1">
  <g id="patch_1">
   <path d="M 0 338.529375 
L 453.64 338.529375 
L 453.64 0 
L 0 0 
z
" style="fill: #ffffff"/>
  </g>
  <g id="axes_1">
   <g id="patch_2">
    <path d="M 25.85 315.32 
L 446.44 315.32 
L 446.44 21.6 
L 25.85 21.6 
z
" style="fill: #ffffff"/>
   </g>
   <g id="matplotlib.axis_1">
    <g id="xtick_1">
     <g id="line2d_1">
      <defs>
       <path id="mfe692b9327" d="M 0 0 
L 0 3.5 
" style="stroke: #000000; stroke-width: 0.8"/>
      </defs>
      <g>
       <use xlink:href="#mfe692b9327" x="44.967727" y="315.32" style="stroke: #000000; stroke-width: 0.8"/>
      </g>
     </g>
     <g id="text_1">
      <!-- 0 -->
      <g transform="translate(41.952884 329.32) scale(0.1 -0.1)">
       <defs>
        <path id="Exo2-Regular-30" d="M 1926 4499 
Q 2496 4499 2829 4262 
Q 3162 4026 3306 3520 
Q 3450 3014 3450 2208 
Q 3450 1402 3306 896 
Q 3162 390 2829 153 
Q 2496 -83 1926 -83 
Q 1363 -83 1030 153 
Q 698 390 554 896 
Q 410 1402 410 2208 
Q 410 3014 554 3520 
Q 698 4026 1030 4262 
Q 1363 4499 1926 4499 
z
M 1926 4006 
Q 1651 4006 1465 3907 
Q 1280 3808 1168 3597 
Q 1056 3386 1008 3043 
Q 960 2701 960 2208 
Q 960 1722 1008 1376 
Q 1056 1030 1168 819 
Q 1280 608 1465 509 
Q 1651 410 1926 410 
Q 2202 410 2390 509 
Q 2579 608 2691 819 
Q 2803 1030 2851 1376 
Q 2899 1722 2899 2208 
Q 2899 2701 2851 3043 
Q 2803 3386 2691 3597 
Q 2579 3808 2390 3907 
Q 2202 4006 1926 4006 
z
" transform="scale(0.015625)"/>
       </defs>
       <use xlink:href="#Exo2-Regular-30"/>
      </g>
     </g>
    </g>
    <g id="xtick_2">
     <g id="line2d_2">
      <g>
       <use xlink:href="#mfe692b9327" x="91.786651" y="315.32" style="stroke: #000000; stroke-width: 0.8"/>
      </g>
     </g>
     <g id="text_2">
      <!-- 6 -->
      <g transform="translate(88.926495 329.32) scale(0.1 -0.1)">
       <defs>
        <path id="Exo2-Regular-36" d="M 2138 4493 
Q 2272 4493 2515 4480 
Q 2758 4467 3027 4397 
L 2976 3987 
Q 2835 4000 2716 4006 
Q 2598 4013 2464 4013 
Q 2330 4013 2138 4013 
Q 1811 4013 1587 3942 
Q 1363 3872 1228 3673 
Q 1094 3475 1036 3091 
Q 979 2707 979 2080 
Q 979 1600 1004 1273 
Q 1030 947 1123 758 
Q 1216 570 1405 486 
Q 1594 403 1920 403 
Q 2298 403 2480 521 
Q 2662 640 2716 870 
Q 2771 1101 2771 1427 
Q 2771 1792 2704 2009 
Q 2637 2227 2457 2326 
Q 2278 2426 1952 2426 
Q 1741 2426 1561 2374 
Q 1382 2323 1196 2192 
Q 1011 2061 768 1824 
L 742 2106 
Q 954 2406 1146 2576 
Q 1338 2746 1565 2813 
Q 1792 2880 2099 2880 
Q 2566 2880 2828 2739 
Q 3091 2598 3200 2281 
Q 3309 1965 3309 1427 
Q 3309 1088 3257 809 
Q 3206 531 3059 332 
Q 2912 134 2637 28 
Q 2362 -77 1914 -77 
Q 1446 -77 1152 28 
Q 858 134 701 384 
Q 544 634 483 1053 
Q 422 1472 422 2099 
Q 422 2880 528 3353 
Q 634 3827 845 4073 
Q 1056 4320 1379 4406 
Q 1702 4493 2138 4493 
z
" transform="scale(0.015625)"/>
       </defs>
       <use xlink:href="#Exo2-Regular-36"/>
      </g>
     </g>
    </g>
    <g id="xtick_3">
     <g id="line2d_3">
      <g>
       <use xlink:href="#mfe692b9327" x="138.605575" y="315.32" style="stroke: #000000; stroke-width: 0.8"/>
      </g>
     </g>
     <g id="text_3">
      <!-- 12 -->
      <g transform="translate(133.805575 329.32) scale(0.1 -0.1)">
       <defs>
        <path id="Exo2-Regular-31" d="M 1830 4416 
L 1830 0 
L 1267 0 
L 1267 3501 
Q 1267 3597 1273 3693 
Q 1280 3789 1299 3885 
L 218 3546 
L 141 3962 
L 1267 4416 
L 1830 4416 
z
" transform="scale(0.015625)"/>
        <path id="Exo2-Regular-32" d="M 1734 4493 
Q 2157 4493 2461 4422 
Q 2765 4352 2928 4147 
Q 3091 3942 3091 3539 
Q 3091 3264 3017 3021 
Q 2944 2778 2771 2518 
Q 2598 2259 2304 1933 
L 1037 518 
Q 1203 531 1392 537 
Q 1581 544 1754 544 
L 3251 544 
L 3251 0 
L 352 0 
L 352 352 
Q 352 422 371 483 
Q 390 544 435 595 
L 1715 2042 
Q 2138 2496 2336 2848 
Q 2534 3200 2522 3514 
Q 2515 3731 2416 3830 
Q 2317 3930 2134 3962 
Q 1952 3994 1696 3994 
Q 1491 3994 1305 3987 
Q 1120 3981 912 3958 
Q 704 3936 429 3891 
L 390 4326 
Q 691 4397 918 4432 
Q 1146 4467 1341 4480 
Q 1536 4493 1734 4493 
z
" transform="scale(0.015625)"/>
       </defs>
       <use xlink:href="#Exo2-Regular-31"/>
       <use xlink:href="#Exo2-Regular-32" transform="translate(39.799988 0)"/>
      </g>
     </g>
    </g>
    <g id="xtick_4">
     <g id="line2d_4">
      <g>
       <use xlink:href="#mfe692b9327" x="185.424499" y="315.32" style="stroke: #000000; stroke-width: 0.8"/>
      </g>
     </g>
     <g id="text_4">
      <!-- 18 -->
      <g transform="translate(180.399499 329.32) scale(0.1 -0.1)">
       <defs>
        <path id="Exo2-Regular-38" d="M 1946 4480 
Q 2368 4480 2640 4409 
Q 2912 4339 3069 4198 
Q 3226 4058 3286 3837 
Q 3347 3616 3347 3315 
Q 3347 3027 3283 2809 
Q 3219 2592 3081 2461 
Q 2944 2330 2720 2304 
L 2720 2278 
Q 3002 2253 3158 2102 
Q 3315 1952 3379 1699 
Q 3443 1446 3443 1101 
Q 3443 698 3321 438 
Q 3200 179 2877 57 
Q 2554 -64 1946 -64 
Q 1350 -64 1024 57 
Q 698 179 570 438 
Q 442 698 442 1101 
Q 442 1446 509 1699 
Q 576 1952 736 2102 
Q 896 2253 1171 2278 
L 1171 2304 
Q 947 2330 806 2461 
Q 666 2592 602 2809 
Q 538 3027 538 3315 
Q 538 3616 602 3837 
Q 666 4058 822 4198 
Q 979 4339 1251 4409 
Q 1523 4480 1946 4480 
z
M 1958 2067 
Q 1658 2067 1466 2028 
Q 1274 1990 1165 1897 
Q 1056 1805 1014 1638 
Q 973 1472 973 1216 
Q 973 922 1053 746 
Q 1133 570 1347 496 
Q 1562 422 1952 422 
Q 2342 422 2547 496 
Q 2752 570 2829 746 
Q 2906 922 2906 1216 
Q 2906 1478 2864 1644 
Q 2822 1811 2720 1904 
Q 2618 1997 2432 2032 
Q 2246 2067 1958 2067 
z
M 1952 4026 
Q 1587 4026 1395 3955 
Q 1203 3885 1129 3718 
Q 1056 3552 1056 3264 
Q 1056 2963 1129 2800 
Q 1203 2637 1398 2576 
Q 1594 2515 1958 2515 
Q 2330 2515 2518 2579 
Q 2707 2643 2771 2806 
Q 2835 2970 2835 3264 
Q 2835 3552 2768 3718 
Q 2701 3885 2509 3955 
Q 2317 4026 1952 4026 
z
" transform="scale(0.015625)"/>
       </defs>
       <use xlink:href="#Exo2-Regular-31"/>
       <use xlink:href="#Exo2-Regular-38" transform="translate(39.799988 0)"/>
      </g>
     </g>
    </g>
    <g id="xtick_5">
     <g id="line2d_5">
      <g>
       <use xlink:href="#mfe692b9327" x="232.243423" y="315.32" style="stroke: #000000; stroke-width: 0.8"/>
      </g>
     </g>
     <g id="text_5">
      <!-- 24 -->
      <g transform="translate(226.358267 329.32) scale(0.1 -0.1)">
       <defs>
        <path id="Exo2-Regular-34" d="M 2112 4416 
L 877 1805 
Q 819 1677 873 1609 
Q 928 1542 1037 1542 
L 3654 1542 
L 3654 1139 
L 3066 1082 
L 723 1082 
Q 544 1082 422 1184 
Q 301 1286 265 1446 
Q 230 1606 301 1766 
L 1555 4416 
L 2112 4416 
z
M 3085 3571 
L 3085 0 
L 2554 0 
L 2554 2842 
L 2650 3571 
L 3085 3571 
z
" transform="scale(0.015625)"/>
       </defs>
       <use xlink:href="#Exo2-Regular-32"/>
       <use xlink:href="#Exo2-Regular-34" transform="translate(56.199997 0)"/>
      </g>
     </g>
    </g>
    <g id="xtick_6">
     <g id="line2d_6">
      <g>
       <use xlink:href="#mfe692b9327" x="279.062347" y="315.32" style="stroke: #000000; stroke-width: 0.8"/>
      </g>
     </g>
     <g id="text_6">
      <!-- 30 -->
      <g transform="translate(273.267816 329.32) scale(0.1 -0.1)">
       <defs>
        <path id="Exo2-Regular-33" d="M 1651 4499 
Q 2138 4499 2435 4406 
Q 2733 4314 2873 4090 
Q 3014 3866 3014 3475 
Q 3014 3194 2956 2960 
Q 2899 2726 2761 2569 
Q 2624 2413 2368 2362 
L 2368 2336 
Q 2803 2266 2966 1974 
Q 3130 1683 3136 1229 
Q 3142 781 3008 489 
Q 2874 198 2566 57 
Q 2259 -83 1734 -83 
Q 1382 -83 1027 -48 
Q 672 -13 333 32 
L 371 486 
Q 589 467 790 451 
Q 992 435 1190 428 
Q 1389 422 1594 422 
Q 1952 422 2166 502 
Q 2381 582 2480 774 
Q 2579 966 2579 1286 
Q 2579 1530 2512 1712 
Q 2445 1894 2256 1996 
Q 2067 2099 1702 2099 
L 883 2099 
L 883 2541 
L 1702 2541 
Q 1965 2541 2121 2611 
Q 2278 2682 2355 2794 
Q 2432 2906 2454 3050 
Q 2477 3194 2477 3347 
Q 2470 3629 2387 3766 
Q 2304 3904 2109 3952 
Q 1914 4000 1574 4000 
Q 1261 4000 969 3984 
Q 678 3968 454 3949 
L 410 4384 
Q 736 4442 1040 4470 
Q 1344 4499 1651 4499 
z
" transform="scale(0.015625)"/>
       </defs>
       <use xlink:href="#Exo2-Regular-33"/>
       <use xlink:href="#Exo2-Regular-30" transform="translate(55.599991 0)"/>
      </g>
     </g>
    </g>
    <g id="xtick_7">
     <g id="line2d_7">
      <g>
       <use xlink:href="#mfe692b9327" x="325.881271" y="315.32" style="stroke: #000000; stroke-width: 0.8"/>
      </g>
     </g>
     <g id="text_7">
      <!-- 36 -->
      <g transform="translate(320.241427 329.32) scale(0.1 -0.1)">
       <use xlink:href="#Exo2-Regular-33"/>
       <use xlink:href="#Exo2-Regular-36" transform="translate(55.599991 0)"/>
      </g>
     </g>
    </g>
    <g id="xtick_8">
     <g id="line2d_8">
      <g>
       <use xlink:href="#mfe692b9327" x="372.700195" y="315.32" style="stroke: #000000; stroke-width: 0.8"/>
      </g>
     </g>
     <g id="text_8">
      <!-- 42 -->
      <g transform="translate(366.815039 329.32) scale(0.1 -0.1)">
       <use xlink:href="#Exo2-Regular-34"/>
       <use xlink:href="#Exo2-Regular-32" transform="translate(61.499985 0)"/>
      </g>
     </g>
    </g>
    <g id="xtick_9">
     <g id="line2d_9">
      <g>
       <use xlink:href="#mfe692b9327" x="419.519119" y="315.32" style="stroke: #000000; stroke-width: 0.8"/>
      </g>
     </g>
     <g id="text_9">
      <!-- 48 -->
      <g transform="translate(413.408962 329.32) scale(0.1 -0.1)">
       <use xlink:href="#Exo2-Regular-34"/>
       <use xlink:href="#Exo2-Regular-38" transform="translate(61.499985 0)"/>
      </g>
     </g>
    </g>
   </g>
   <g id="matplotlib.axis_2">
    <g id="ytick_1">
     <g id="line2d_10">
      <defs>
       <path id="me2bc1a0a69" d="M 0 0 
L -3.5 0 
" style="stroke: #000000; stroke-width: 0.8"/>
      </defs>
      <g>
       <use xlink:href="#me2bc1a0a69" x="25.85" y="302.245902" style="stroke: #000000; stroke-width: 0.8"/>
      </g>
     </g>
     <g id="text_10">
      <!-- 0 -->
      <g transform="translate(12.820312 305.745902) scale(0.1 -0.1)">
       <use xlink:href="#Exo2-Regular-30"/>
      </g>
     </g>
    </g>
    <g id="ytick_2">
     <g id="line2d_11">
      <g>
       <use xlink:href="#me2bc1a0a69" x="25.85" y="260.479113" style="stroke: #000000; stroke-width: 0.8"/>
      </g>
     </g>
     <g id="text_11">
      <!-- 5 -->
      <g transform="translate(13.490625 263.979113) scale(0.1 -0.1)">
       <defs>
        <path id="Exo2-Regular-35" d="M 2944 4416 
L 2918 3936 
L 1062 3936 
L 998 2733 
L 1472 2694 
Q 1907 2662 2211 2579 
Q 2515 2496 2707 2336 
Q 2899 2176 2985 1929 
Q 3072 1683 3072 1325 
Q 3072 1056 3017 806 
Q 2963 557 2812 358 
Q 2662 160 2380 41 
Q 2099 -77 1645 -77 
Q 1382 -77 1036 -38 
Q 691 0 333 83 
L 397 538 
Q 698 486 998 454 
Q 1299 422 1517 422 
Q 1939 422 2150 528 
Q 2362 634 2438 835 
Q 2515 1037 2522 1325 
Q 2528 1632 2448 1808 
Q 2368 1984 2192 2070 
Q 2016 2157 1725 2192 
Q 1434 2227 1011 2253 
L 717 2272 
Q 621 2285 560 2352 
Q 499 2419 506 2522 
L 608 4416 
L 2944 4416 
z
" transform="scale(0.015625)"/>
       </defs>
       <use xlink:href="#Exo2-Regular-35"/>
      </g>
     </g>
    </g>
    <g id="ytick_3">
     <g id="line2d_12">
      <g>
       <use xlink:href="#me2bc1a0a69" x="25.85" y="218.712323" style="stroke: #000000; stroke-width: 0.8"/>
      </g>
     </g>
     <g id="text_12">
      <!-- 10 -->
      <g transform="translate(8.840625 222.212323) scale(0.1 -0.1)">
       <use xlink:href="#Exo2-Regular-31"/>
       <use xlink:href="#Exo2-Regular-30" transform="translate(39.799988 0)"/>
      </g>
     </g>
    </g>
    <g id="ytick_4">
     <g id="line2d_13">
      <g>
       <use xlink:href="#me2bc1a0a69" x="25.85" y="176.945534" style="stroke: #000000; stroke-width: 0.8"/>
      </g>
     </g>
     <g id="text_13">
      <!-- 15 -->
      <g transform="translate(9.510938 180.445534) scale(0.1 -0.1)">
       <use xlink:href="#Exo2-Regular-31"/>
       <use xlink:href="#Exo2-Regular-35" transform="translate(39.799988 0)"/>
      </g>
     </g>
    </g>
    <g id="ytick_5">
     <g id="line2d_14">
      <g>
       <use xlink:href="#me2bc1a0a69" x="25.85" y="135.178744" style="stroke: #000000; stroke-width: 0.8"/>
      </g>
     </g>
     <g id="text_14">
      <!-- 20 -->
      <g transform="translate(7.2 138.678744) scale(0.1 -0.1)">
       <use xlink:href="#Exo2-Regular-32"/>
       <use xlink:href="#Exo2-Regular-30" transform="translate(56.199997 0)"/>
      </g>
     </g>
    </g>
    <g id="ytick_6">
     <g id="line2d_15">
      <g>
       <use xlink:href="#me2bc1a0a69" x="25.85" y="93.411955" style="stroke: #000000; stroke-width: 0.8"/>
      </g>
     </g>
     <g id="text_15">
      <!-- 25 -->
      <g transform="translate(7.870313 96.911955) scale(0.1 -0.1)">
       <use xlink:href="#Exo2-Regular-32"/>
       <use xlink:href="#Exo2-Regular-35" transform="translate(56.199997 0)"/>
      </g>
     </g>
    </g>
    <g id="ytick_7">
     <g id="line2d_16">
      <g>
       <use xlink:href="#me2bc1a0a69" x="25.85" y="51.645165" style="stroke: #000000; stroke-width: 0.8"/>
      </g>
     </g>
     <g id="text_16">
      <!-- 30 -->
      <g transform="translate(7.260938 55.145165) scale(0.1 -0.1)">
       <use xlink:href="#Exo2-Regular-33"/>
       <use xlink:href="#Exo2-Regular-30" transform="translate(55.599991 0)"/>
      </g>
     </g>
    </g>
   </g>
   <g id="line2d_17">
    <path d="M 44.967727 292.510741 
L 52.770881 297.402073 
L 60.574035 298.401647 
L 68.377189 298.80646 
L 76.180343 298.930241 
L 83.983497 299.070008 
L 91.786651 299.231298 
L 99.589805 299.285875 
L 107.392959 299.472933 
L 115.196113 299.590073 
L 122.999267 299.64706 
L 130.802421 299.730462 
L 138.605575 299.898325 
L 146.408729 299.931668 
L 154.211883 300.020357 
L 162.015037 300.107051 
L 169.818191 300.18861 
L 177.621345 300.270695 
L 185.424499 300.356657 
L 193.227653 300.389947 
L 201.030807 300.435461 
L 208.833961 300.425738 
L 216.637115 300.406966 
L 224.440269 300.49489 
L 232.243423 300.556389 
L 240.046577 300.614885 
L 247.849731 300.60622 
L 255.652885 300.639339 
L 263.456039 300.674409 
L 271.259193 300.690424 
L 279.062347 300.713343 
L 286.865501 300.701058 
L 294.668655 300.727278 
L 302.471809 300.735955 
L 310.274963 300.790513 
L 318.078117 300.80445 
L 325.881271 300.797619 
L 333.684425 300.803578 
L 341.487579 300.826271 
L 349.290733 300.832595 
L 357.093887 300.840875 
L 364.897041 300.837203 
L 372.700195 300.84604 
L 380.503349 300.848472 
L 388.306503 300.845762 
L 396.109657 300.862391 
L 403.912811 300.842946 
L 411.715965 300.863059 
L 419.519119 300.882425 
L 427.322273 300.874528 
" clip-path="url(#pa9725c1d62)" style="fill: none; stroke: #1f77b4; stroke-width: 1.5; stroke-linecap: square"/>
   </g>
   <g id="line2d_18">
    <path d="M 44.967727 34.950909 
L 52.770881 254.924019 
L 60.574035 235.488458 
L 68.377189 181.801905 
L 76.180343 268.495708 
L 83.983497 269.654195 
L 91.786651 279.624673 
L 99.589805 242.756165 
L 107.392959 277.406127 
L 115.196113 288.028191 
L 122.999267 263.770687 
L 130.802421 288.220471 
L 138.605575 284.881116 
L 146.408729 287.529466 
L 154.211883 284.415743 
L 162.015037 283.482504 
L 169.818191 280.646374 
L 177.621345 288.470065 
L 185.424499 292.34106 
L 193.227653 287.001187 
L 201.030807 294.290577 
L 208.833961 287.152519 
L 216.637115 291.721017 
L 224.440269 290.02609 
L 232.243423 295.799355 
L 240.046577 291.320309 
L 247.849731 293.231584 
L 255.652885 296.515202 
L 263.456039 297.139596 
L 271.259193 294.548515 
L 279.062347 290.161272 
L 286.865501 287.503796 
L 294.668655 297.819742 
L 302.471809 297.160214 
L 310.274963 297.769133 
L 318.078117 297.897418 
L 325.881271 288.092011 
L 333.684425 298.223827 
L 341.487579 283.812883 
L 349.290733 294.927708 
L 357.093887 296.275041 
L 364.897041 295.379001 
L 372.700195 298.800385 
L 380.503349 298.642272 
L 388.306503 297.407579 
L 396.109657 295.916128 
L 403.912811 298.809676 
L 411.715965 298.973155 
L 419.519119 298.898976 
L 427.322273 298.998953 
" clip-path="url(#pa9725c1d62)" style="fill: none; stroke: #ff7f0e; stroke-width: 1.5; stroke-linecap: square"/>
   </g>
   <g id="line2d_19">
    <path d="M 44.967727 300.682814 
L 52.770881 298.999219 
L 60.574035 298.192709 
L 68.377189 297.930548 
L 76.180343 297.863278 
L 83.983497 297.759508 
L 91.786651 297.647723 
L 99.589805 297.550087 
L 107.392959 297.423587 
L 115.196113 297.295544 
L 122.999267 297.246244 
L 130.802421 297.163543 
L 138.605575 297.040309 
L 146.408729 296.971079 
L 154.211883 296.924845 
L 162.015037 296.839389 
L 169.818191 296.821307 
L 177.621345 296.728635 
L 185.424499 296.646384 
L 193.227653 296.638229 
L 201.030807 296.573883 
L 208.833961 296.557755 
L 216.637115 296.574727 
L 224.440269 296.521807 
L 232.243423 296.476417 
L 240.046577 296.411146 
L 247.849731 296.431111 
L 255.652885 296.388457 
L 263.456039 296.365473 
L 271.259193 296.336533 
L 279.062347 296.316956 
L 286.865501 296.3271 
L 294.668655 296.292512 
L 302.471809 296.320182 
L 310.274963 296.26435 
L 318.078117 296.237573 
L 325.881271 296.261023 
L 333.684425 296.22381 
L 341.487579 296.227803 
L 349.290733 296.202761 
L 357.093887 296.205951 
L 364.897041 296.18738 
L 372.700195 296.202184 
L 380.503349 296.192884 
L 388.306503 296.196958 
L 396.109657 296.164834 
L 403.912811 296.177402 
L 411.715965 296.158156 
L 419.519119 296.148935 
L 427.322273 296.168664 
" clip-path="url(#pa9725c1d62)" style="fill: none; stroke: #2ca02c; stroke-width: 1.5; stroke-linecap: square"/>
   </g>
   <g id="line2d_20">
    <path d="M 44.967727 301.969091 
L 52.770881 301.885395 
L 60.574035 301.350372 
L 68.377189 301.399409 
L 76.180343 301.087731 
L 83.983497 301.126399 
L 91.786651 301.049896 
L 99.589805 301.961605 
L 107.392959 301.005515 
L 115.196113 300.803663 
L 122.999267 301.439299 
L 130.802421 300.163534 
L 138.605575 300.805926 
L 146.408729 299.972414 
L 154.211883 300.811073 
L 162.015037 300.876391 
L 169.818191 300.859752 
L 177.621345 300.272519 
L 185.424499 299.754316 
L 193.227653 300.213074 
L 201.030807 298.682306 
L 208.833961 300.257053 
L 216.637115 299.382461 
L 224.440269 300.143367 
L 232.243423 298.416249 
L 240.046577 299.194654 
L 247.849731 299.189502 
L 255.652885 298.073653 
L 263.456039 297.709004 
L 271.259193 298.276654 
L 279.062347 299.311153 
L 286.865501 299.233763 
L 294.668655 297.200048 
L 302.471809 297.814718 
L 310.274963 297.823947 
L 318.078117 297.359884 
L 325.881271 299.233373 
L 333.684425 297.063114 
L 341.487579 299.753387 
L 349.290733 298.073823 
L 357.093887 298.089937 
L 364.897041 297.910977 
L 372.700195 296.945703 
L 380.503349 297.003692 
L 388.306503 297.361164 
L 396.109657 297.737171 
L 403.912811 296.891768 
L 411.715965 296.805759 
L 419.519119 296.833794 
L 427.322273 296.7898 
" clip-path="url(#pa9725c1d62)" style="fill: none; stroke: #d62728; stroke-width: 1.5; stroke-linecap: square"/>
   </g>
   <g id="patch_3">
    <path d="M 25.85 315.32 
L 25.85 21.6 
" style="fill: none; stroke: #000000; stroke-width: 0.8; stroke-linejoin: miter; stroke-linecap: square"/>
   </g>
   <g id="patch_4">
    <path d="M 446.44 315.32 
L 446.44 21.6 
" style="fill: none; stroke: #000000; stroke-width: 0.8; stroke-linejoin: miter; stroke-linecap: square"/>
   </g>
   <g id="patch_5">
    <path d="M 25.85 315.32 
L 446.44 315.32 
" style="fill: none; stroke: #000000; stroke-width: 0.8; stroke-linejoin: miter; stroke-linecap: square"/>
   </g>
   <g id="patch_6">
    <path d="M 25.85 21.6 
L 446.44 21.6 
" style="fill: none; stroke: #000000; stroke-width: 0.8; stroke-linejoin: miter; stroke-linecap: square"/>
   </g>
   <g id="text_17">
    <!-- efficientnetb0_Linknet_BS_16_LR_0.002 -->
    <g transform="translate(128.885625 15.6) scale(0.12 -0.12)">
     <defs>
      <path id="Exo2-Regular-65" d="M 1779 3194 
Q 2483 3194 2800 2938 
Q 3117 2682 3117 2176 
Q 3123 1760 2944 1526 
Q 2765 1293 2374 1293 
L 557 1293 
L 557 1715 
L 2234 1715 
Q 2445 1715 2509 1859 
Q 2573 2003 2573 2176 
Q 2566 2477 2393 2605 
Q 2221 2733 1805 2733 
Q 1466 2733 1270 2633 
Q 1075 2534 995 2288 
Q 915 2042 915 1600 
Q 915 1101 1014 838 
Q 1114 576 1331 480 
Q 1549 384 1907 384 
Q 2157 384 2454 406 
Q 2752 429 2989 461 
L 3046 96 
Q 2899 38 2684 0 
Q 2470 -38 2243 -57 
Q 2016 -77 1837 -77 
Q 1299 -77 972 86 
Q 646 250 496 611 
Q 346 973 346 1568 
Q 346 2182 496 2537 
Q 646 2893 963 3043 
Q 1280 3194 1779 3194 
z
" transform="scale(0.015625)"/>
      <path id="Exo2-Regular-66" d="M 1651 4589 
Q 1754 4589 1914 4585 
Q 2074 4582 2240 4572 
Q 2406 4563 2528 4544 
L 2483 4141 
L 1843 4141 
Q 1536 4141 1411 4019 
Q 1286 3898 1286 3616 
L 1286 0 
L 742 0 
L 742 3674 
Q 742 3968 832 4169 
Q 922 4371 1120 4480 
Q 1318 4589 1651 4589 
z
M 2285 3117 
L 2285 2688 
L 179 2688 
L 179 3085 
L 774 3117 
L 2285 3117 
z
" transform="scale(0.015625)"/>
      <path id="Exo2-Regular-69" d="M 1062 3117 
L 1062 0 
L 525 0 
L 525 3117 
L 1062 3117 
z
M 922 4442 
Q 1088 4442 1088 4275 
L 1088 3910 
Q 1088 3744 922 3744 
L 666 3744 
Q 499 3744 499 3910 
L 499 4275 
Q 499 4442 666 4442 
L 922 4442 
z
" transform="scale(0.015625)"/>
      <path id="Exo2-Regular-63" d="M 1830 3194 
Q 1971 3194 2144 3181 
Q 2317 3168 2499 3136 
Q 2682 3104 2835 3046 
L 2765 2694 
Q 2554 2714 2320 2723 
Q 2086 2733 1920 2733 
Q 1549 2733 1331 2630 
Q 1114 2528 1018 2272 
Q 922 2016 922 1562 
Q 922 1107 1018 848 
Q 1114 589 1331 486 
Q 1549 384 1920 384 
Q 2016 384 2169 390 
Q 2323 397 2499 409 
Q 2675 422 2835 448 
L 2893 83 
Q 2656 0 2377 -38 
Q 2099 -77 1824 -77 
Q 1286 -77 960 83 
Q 634 243 490 601 
Q 346 960 346 1562 
Q 346 2163 493 2521 
Q 640 2880 966 3037 
Q 1293 3194 1830 3194 
z
" transform="scale(0.015625)"/>
      <path id="Exo2-Regular-6e" d="M 2394 3194 
Q 3238 3194 3238 2336 
L 3238 0 
L 2694 0 
L 2694 2182 
Q 2694 2496 2592 2614 
Q 2490 2733 2246 2733 
Q 1958 2733 1670 2592 
Q 1382 2451 986 2208 
L 960 2598 
Q 1325 2880 1683 3037 
Q 2042 3194 2394 3194 
z
M 960 3117 
L 1005 2522 
L 1043 2426 
L 1043 0 
L 499 0 
L 499 3117 
L 960 3117 
z
" transform="scale(0.015625)"/>
      <path id="Exo2-Regular-74" d="M 1280 4038 
L 1280 858 
Q 1280 634 1376 538 
Q 1472 442 1702 442 
L 2176 442 
L 2240 26 
Q 2138 0 2003 -19 
Q 1869 -38 1741 -48 
Q 1613 -58 1536 -58 
Q 1146 -58 941 160 
Q 736 378 736 787 
L 736 4038 
L 1280 4038 
z
M 2272 3117 
L 2272 2688 
L 173 2688 
L 173 3085 
L 787 3117 
L 2272 3117 
z
" transform="scale(0.015625)"/>
      <path id="Exo2-Regular-62" d="M 2176 3194 
Q 2752 3194 3027 2819 
Q 3302 2445 3302 1568 
Q 3302 1165 3235 857 
Q 3168 550 3011 342 
Q 2854 134 2588 28 
Q 2323 -77 1920 -77 
Q 1760 -77 1574 -64 
Q 1389 -51 1197 -22 
Q 1005 6 822 48 
Q 640 90 486 147 
L 922 518 
Q 1094 467 1264 435 
Q 1434 403 1597 393 
Q 1760 384 1907 384 
Q 2208 390 2390 499 
Q 2573 608 2656 867 
Q 2739 1126 2739 1568 
Q 2739 1997 2675 2249 
Q 2611 2502 2448 2611 
Q 2285 2720 1984 2720 
Q 1728 2720 1497 2582 
Q 1267 2445 966 2208 
L 928 2573 
Q 1120 2778 1321 2915 
Q 1523 3053 1740 3123 
Q 1958 3194 2176 3194 
z
M 1030 4480 
L 1030 3315 
Q 1030 3117 1020 2950 
Q 1011 2784 973 2611 
L 1024 2522 
L 1030 122 
L 486 147 
L 486 4480 
L 1030 4480 
z
" transform="scale(0.015625)"/>
      <path id="Exo2-Regular-5f" d="M 2803 0 
L 2803 -416 
L 0 -416 
L 0 0 
L 2803 0 
z
" transform="scale(0.015625)"/>
      <path id="Exo2-Regular-4c" d="M 1101 4416 
L 1101 896 
Q 1101 678 1206 576 
Q 1312 474 1530 474 
L 3123 474 
L 3149 38 
Q 2733 6 2301 0 
Q 1869 -6 1440 -6 
Q 954 -6 749 230 
Q 544 467 544 826 
L 544 4416 
L 1101 4416 
z
" transform="scale(0.015625)"/>
      <path id="Exo2-Regular-6b" d="M 3046 3117 
L 2067 1971 
Q 2022 1914 1958 1853 
Q 1894 1792 1850 1760 
L 1850 1747 
Q 1894 1715 1958 1641 
Q 2022 1568 2067 1498 
L 3149 0 
L 2515 0 
L 1280 1786 
L 2413 3117 
L 3046 3117 
z
M 1043 4480 
L 1050 2490 
Q 1050 2291 1034 2121 
Q 1018 1952 986 1766 
Q 1018 1587 1030 1408 
Q 1043 1229 1043 1062 
L 1043 0 
L 499 0 
L 499 4480 
L 1043 4480 
z
M 1574 1958 
L 1574 1562 
L 851 1562 
L 851 1958 
L 1574 1958 
z
" transform="scale(0.015625)"/>
      <path id="Exo2-Regular-42" d="M 1990 4467 
Q 2534 4467 2854 4368 
Q 3174 4269 3318 4019 
Q 3462 3770 3462 3315 
Q 3462 2842 3286 2592 
Q 3110 2342 2714 2304 
L 2714 2278 
Q 3206 2234 3401 1933 
Q 3597 1632 3597 1101 
Q 3597 646 3456 396 
Q 3315 147 3004 48 
Q 2694 -51 2189 -51 
Q 1811 -51 1539 -48 
Q 1267 -45 1036 -32 
Q 806 -19 557 0 
L 646 448 
Q 787 442 1180 435 
Q 1574 429 2099 429 
Q 2451 429 2652 489 
Q 2854 550 2940 716 
Q 3027 883 3027 1197 
Q 3027 1542 2937 1728 
Q 2848 1914 2637 1990 
Q 2426 2067 2061 2074 
L 640 2074 
L 640 2502 
L 2054 2502 
Q 2374 2509 2563 2569 
Q 2752 2630 2835 2793 
Q 2918 2957 2918 3251 
Q 2918 3552 2828 3712 
Q 2739 3872 2531 3929 
Q 2323 3987 1965 3987 
Q 1651 3987 1401 3987 
Q 1152 3987 963 3984 
Q 774 3981 646 3968 
L 557 4416 
Q 781 4442 982 4451 
Q 1184 4461 1424 4464 
Q 1664 4467 1990 4467 
z
M 1107 4416 
L 1107 0 
L 557 0 
L 557 4416 
L 1107 4416 
z
" transform="scale(0.015625)"/>
      <path id="Exo2-Regular-53" d="M 1786 4493 
Q 2099 4486 2432 4460 
Q 2765 4435 3098 4365 
L 3059 3955 
Q 2784 3968 2451 3977 
Q 2118 3987 1811 3987 
Q 1574 3987 1404 3971 
Q 1235 3955 1126 3894 
Q 1018 3834 970 3696 
Q 922 3558 922 3315 
Q 922 2950 1053 2806 
Q 1184 2662 1478 2592 
L 2374 2368 
Q 2886 2246 3075 1942 
Q 3264 1638 3264 1126 
Q 3264 742 3177 505 
Q 3091 269 2912 144 
Q 2733 19 2451 -29 
Q 2170 -77 1786 -77 
Q 1568 -77 1219 -57 
Q 870 -38 416 45 
L 454 461 
Q 832 448 1062 438 
Q 1293 429 1459 429 
Q 1626 429 1805 429 
Q 2144 429 2339 480 
Q 2534 531 2614 684 
Q 2694 838 2694 1139 
Q 2694 1395 2636 1536 
Q 2579 1677 2454 1750 
Q 2330 1824 2138 1869 
L 1222 2099 
Q 742 2221 547 2521 
Q 352 2822 352 3328 
Q 352 3712 438 3945 
Q 525 4179 701 4297 
Q 877 4416 1145 4454 
Q 1414 4493 1786 4493 
z
" transform="scale(0.015625)"/>
      <path id="Exo2-Regular-52" d="M 2080 4474 
Q 2592 4474 2905 4362 
Q 3219 4250 3363 3974 
Q 3507 3699 3507 3200 
Q 3507 2842 3424 2602 
Q 3341 2362 3165 2230 
Q 2989 2099 2694 2061 
L 2694 2029 
Q 2803 2003 2908 1923 
Q 3014 1843 3104 1712 
Q 3194 1581 3238 1395 
L 3667 0 
L 3066 0 
L 2675 1382 
Q 2592 1632 2451 1737 
Q 2310 1843 2086 1843 
Q 1696 1843 1408 1846 
Q 1120 1850 928 1856 
Q 736 1862 621 1862 
L 640 2330 
L 2067 2330 
Q 2394 2336 2582 2406 
Q 2771 2477 2854 2659 
Q 2938 2842 2938 3168 
Q 2938 3494 2854 3670 
Q 2771 3846 2582 3916 
Q 2394 3987 2067 3987 
Q 1542 3987 1161 3980 
Q 781 3974 646 3974 
L 557 4416 
Q 800 4442 1011 4454 
Q 1222 4467 1475 4470 
Q 1728 4474 2080 4474 
z
M 1114 4416 
L 1114 0 
L 557 0 
L 557 4416 
L 1114 4416 
z
" transform="scale(0.015625)"/>
      <path id="Exo2-Regular-2e" d="M 819 755 
Q 934 755 979 710 
Q 1024 666 1024 550 
L 1024 205 
Q 1024 90 979 45 
Q 934 0 819 0 
L 640 0 
Q 531 0 483 45 
Q 435 90 435 205 
L 435 550 
Q 435 666 483 710 
Q 531 755 640 755 
L 819 755 
z
" transform="scale(0.015625)"/>
     </defs>
     <use xlink:href="#Exo2-Regular-65"/>
     <use xlink:href="#Exo2-Regular-66" transform="translate(53.699997 0)"/>
     <use xlink:href="#Exo2-Regular-66" transform="translate(91.699982 0)"/>
     <use xlink:href="#Exo2-Regular-69" transform="translate(129.699966 0)"/>
     <use xlink:href="#Exo2-Regular-63" transform="translate(154.499954 0)"/>
     <use xlink:href="#Exo2-Regular-69" transform="translate(203.399948 0)"/>
     <use xlink:href="#Exo2-Regular-65" transform="translate(228.199936 0)"/>
     <use xlink:href="#Exo2-Regular-6e" transform="translate(281.899933 0)"/>
     <use xlink:href="#Exo2-Regular-74" transform="translate(339.999924 0)"/>
     <use xlink:href="#Exo2-Regular-6e" transform="translate(378.099915 0)"/>
     <use xlink:href="#Exo2-Regular-65" transform="translate(436.199905 0)"/>
     <use xlink:href="#Exo2-Regular-74" transform="translate(489.899902 0)"/>
     <use xlink:href="#Exo2-Regular-62" transform="translate(527.999893 0)"/>
     <use xlink:href="#Exo2-Regular-30" transform="translate(584.999878 0)"/>
     <use xlink:href="#Exo2-Regular-5f" transform="translate(645.299866 0)"/>
     <use xlink:href="#Exo2-Regular-4c" transform="translate(689.099854 0)"/>
     <use xlink:href="#Exo2-Regular-69" transform="translate(740.499847 0)"/>
     <use xlink:href="#Exo2-Regular-6e" transform="translate(765.299835 0)"/>
     <use xlink:href="#Exo2-Regular-6b" transform="translate(823.399826 0)"/>
     <use xlink:href="#Exo2-Regular-6e" transform="translate(874.29982 0)"/>
     <use xlink:href="#Exo2-Regular-65" transform="translate(932.399811 0)"/>
     <use xlink:href="#Exo2-Regular-74" transform="translate(986.099808 0)"/>
     <use xlink:href="#Exo2-Regular-5f" transform="translate(1024.199799 0)"/>
     <use xlink:href="#Exo2-Regular-42" transform="translate(1067.999786 0)"/>
     <use xlink:href="#Exo2-Regular-53" transform="translate(1129.999771 0)"/>
     <use xlink:href="#Exo2-Regular-5f" transform="translate(1186.099762 0)"/>
     <use xlink:href="#Exo2-Regular-31" transform="translate(1229.89975 0)"/>
     <use xlink:href="#Exo2-Regular-36" transform="translate(1269.699738 0)"/>
     <use xlink:href="#Exo2-Regular-5f" transform="translate(1326.899734 0)"/>
     <use xlink:href="#Exo2-Regular-4c" transform="translate(1370.699722 0)"/>
     <use xlink:href="#Exo2-Regular-52" transform="translate(1422.099716 0)"/>
     <use xlink:href="#Exo2-Regular-5f" transform="translate(1483.899704 0)"/>
     <use xlink:href="#Exo2-Regular-30" transform="translate(1527.699692 0)"/>
     <use xlink:href="#Exo2-Regular-2e" transform="translate(1587.99968 0)"/>
     <use xlink:href="#Exo2-Regular-30" transform="translate(1610.899673 0)"/>
     <use xlink:href="#Exo2-Regular-30" transform="translate(1671.199661 0)"/>
     <use xlink:href="#Exo2-Regular-32" transform="translate(1731.499649 0)"/>
    </g>
   </g>
   <g id="legend_1">
    <g id="patch_7">
     <path d="M 340.343125 85.6375 
L 439.44 85.6375 
Q 441.44 85.6375 441.44 83.6375 
L 441.44 28.6 
Q 441.44 26.6 439.44 26.6 
L 340.343125 26.6 
Q 338.343125 26.6 338.343125 28.6 
L 338.343125 83.6375 
Q 338.343125 85.6375 340.343125 85.6375 
z
" style="fill: #ffffff; opacity: 0.8; stroke: #cccccc; stroke-linejoin: miter"/>
    </g>
    <g id="line2d_21">
     <path d="M 342.343125 34.1 
L 352.343125 34.1 
L 362.343125 34.1 
" style="fill: none; stroke: #1f77b4; stroke-width: 1.5; stroke-linecap: square"/>
    </g>
    <g id="text_18">
     <!-- train loss -->
     <g transform="translate(370.343125 37.6) scale(0.1 -0.1)">
      <defs>
       <path id="Exo2-Regular-72" d="M 922 3117 
L 992 2522 
L 1043 2426 
L 1043 0 
L 499 0 
L 499 3117 
L 922 3117 
z
M 2451 3194 
L 2387 2682 
L 2208 2682 
Q 1933 2682 1657 2570 
Q 1382 2458 986 2253 
L 941 2592 
Q 1286 2874 1635 3034 
Q 1984 3194 2310 3194 
L 2451 3194 
z
" transform="scale(0.015625)"/>
       <path id="Exo2-Regular-61" d="M 1971 3194 
Q 2317 3194 2557 3101 
Q 2797 3008 2918 2790 
Q 3040 2573 3040 2195 
L 3040 0 
L 2611 0 
L 2528 678 
L 2490 749 
L 2490 2195 
Q 2490 2483 2358 2608 
Q 2227 2733 1856 2733 
Q 1613 2733 1245 2707 
Q 877 2682 518 2650 
L 467 3053 
Q 685 3091 944 3123 
Q 1203 3155 1472 3174 
Q 1741 3194 1971 3194 
z
M 2784 1920 
L 2778 1510 
L 1286 1504 
Q 1062 1498 972 1386 
Q 883 1274 883 1075 
L 883 877 
Q 883 634 998 522 
Q 1114 410 1370 410 
Q 1549 410 1776 477 
Q 2003 544 2233 685 
Q 2464 826 2656 1043 
L 2656 640 
Q 2586 550 2454 432 
Q 2323 314 2140 202 
Q 1958 90 1737 16 
Q 1517 -58 1261 -58 
Q 986 -58 774 41 
Q 563 141 444 336 
Q 326 531 326 813 
L 326 1152 
Q 326 1517 553 1718 
Q 781 1920 1190 1920 
L 2784 1920 
z
" transform="scale(0.015625)"/>
       <path id="Exo2-Regular-20" transform="scale(0.015625)"/>
       <path id="Exo2-Regular-6c" d="M 1043 4480 
L 1043 858 
Q 1043 653 1155 547 
Q 1267 442 1472 442 
L 1773 442 
L 1837 26 
Q 1779 0 1673 -19 
Q 1568 -38 1456 -48 
Q 1344 -58 1267 -58 
Q 922 -58 714 147 
Q 506 352 506 736 
L 506 4480 
L 1043 4480 
z
" transform="scale(0.015625)"/>
       <path id="Exo2-Regular-6f" d="M 1818 3194 
Q 2355 3194 2678 3034 
Q 3002 2874 3142 2512 
Q 3283 2150 3283 1555 
Q 3283 960 3142 598 
Q 3002 237 2678 77 
Q 2355 -83 1818 -83 
Q 1286 -83 963 77 
Q 640 237 496 598 
Q 352 960 352 1555 
Q 352 2150 496 2512 
Q 640 2874 963 3034 
Q 1286 3194 1818 3194 
z
M 1818 2733 
Q 1478 2733 1283 2627 
Q 1088 2522 1005 2266 
Q 922 2010 922 1555 
Q 922 1101 1005 845 
Q 1088 589 1283 483 
Q 1478 378 1818 378 
Q 2157 378 2355 483 
Q 2554 589 2637 845 
Q 2720 1101 2720 1555 
Q 2720 2010 2637 2266 
Q 2554 2522 2355 2627 
Q 2157 2733 1818 2733 
z
" transform="scale(0.015625)"/>
       <path id="Exo2-Regular-73" d="M 1536 3194 
Q 1741 3194 1971 3181 
Q 2202 3168 2429 3149 
Q 2656 3130 2848 3098 
L 2803 2701 
Q 2509 2714 2211 2723 
Q 1914 2733 1619 2733 
Q 1331 2739 1164 2720 
Q 998 2701 924 2617 
Q 851 2534 851 2336 
Q 851 2093 966 2016 
Q 1082 1939 1306 1888 
L 2214 1683 
Q 2586 1594 2762 1408 
Q 2938 1222 2938 826 
Q 2938 442 2794 250 
Q 2650 58 2355 -6 
Q 2061 -70 1606 -70 
Q 1440 -70 1110 -57 
Q 781 -45 384 19 
L 422 416 
Q 576 410 749 400 
Q 922 390 1110 390 
Q 1299 390 1498 390 
Q 1850 390 2048 422 
Q 2246 454 2329 547 
Q 2413 640 2413 826 
Q 2413 1056 2278 1133 
Q 2144 1210 1920 1261 
L 1024 1466 
Q 768 1530 614 1635 
Q 461 1741 390 1910 
Q 320 2080 320 2336 
Q 320 2701 448 2886 
Q 576 3072 845 3136 
Q 1114 3200 1536 3194 
z
" transform="scale(0.015625)"/>
      </defs>
      <use xlink:href="#Exo2-Regular-74"/>
      <use xlink:href="#Exo2-Regular-72" transform="translate(38.099991 0)"/>
      <use xlink:href="#Exo2-Regular-61" transform="translate(78.199982 0)"/>
      <use xlink:href="#Exo2-Regular-69" transform="translate(133.099976 0)"/>
      <use xlink:href="#Exo2-Regular-6e" transform="translate(157.899963 0)"/>
      <use xlink:href="#Exo2-Regular-20" transform="translate(215.999954 0)"/>
      <use xlink:href="#Exo2-Regular-6c" transform="translate(238.299942 0)"/>
      <use xlink:href="#Exo2-Regular-6f" transform="translate(267.999939 0)"/>
      <use xlink:href="#Exo2-Regular-73" transform="translate(324.799927 0)"/>
      <use xlink:href="#Exo2-Regular-73" transform="translate(375.599915 0)"/>
     </g>
    </g>
    <g id="line2d_22">
     <path d="M 342.343125 48.109375 
L 352.343125 48.109375 
L 362.343125 48.109375 
" style="fill: none; stroke: #ff7f0e; stroke-width: 1.5; stroke-linecap: square"/>
    </g>
    <g id="text_19">
     <!-- val loss -->
     <g transform="translate(370.343125 51.609375) scale(0.1 -0.1)">
      <defs>
       <path id="Exo2-Regular-76" d="M 3270 3117 
L 2131 134 
Q 2106 70 2058 35 
Q 2010 0 1939 0 
L 1446 0 
Q 1382 0 1331 35 
Q 1280 70 1254 134 
L 115 3117 
L 698 3117 
L 1466 934 
Q 1517 800 1561 659 
Q 1606 518 1651 390 
L 1734 390 
Q 1786 525 1834 662 
Q 1882 800 1926 934 
L 2694 3117 
L 3270 3117 
z
" transform="scale(0.015625)"/>
      </defs>
      <use xlink:href="#Exo2-Regular-76"/>
      <use xlink:href="#Exo2-Regular-61" transform="translate(52.999985 0)"/>
      <use xlink:href="#Exo2-Regular-6c" transform="translate(107.899979 0)"/>
      <use xlink:href="#Exo2-Regular-20" transform="translate(137.599976 0)"/>
      <use xlink:href="#Exo2-Regular-6c" transform="translate(159.899963 0)"/>
      <use xlink:href="#Exo2-Regular-6f" transform="translate(189.59996 0)"/>
      <use xlink:href="#Exo2-Regular-73" transform="translate(246.399948 0)"/>
      <use xlink:href="#Exo2-Regular-73" transform="translate(297.199936 0)"/>
     </g>
    </g>
    <g id="line2d_23">
     <path d="M 342.343125 62.11875 
L 352.343125 62.11875 
L 362.343125 62.11875 
" style="fill: none; stroke: #2ca02c; stroke-width: 1.5; stroke-linecap: square"/>
    </g>
    <g id="text_20">
     <!-- train iou_score -->
     <g transform="translate(370.343125 65.61875) scale(0.1 -0.1)">
      <defs>
       <path id="Exo2-Regular-75" d="M 1024 3117 
L 1024 928 
Q 1018 634 1133 512 
Q 1248 390 1517 390 
Q 1779 390 2038 515 
Q 2298 640 2662 877 
L 2733 499 
Q 2368 211 2025 64 
Q 1683 -83 1331 -83 
Q 480 -83 480 774 
L 480 3117 
L 1024 3117 
z
M 3149 3117 
L 3149 0 
L 2714 0 
L 2662 589 
L 2605 685 
L 2605 3117 
L 3149 3117 
z
" transform="scale(0.015625)"/>
      </defs>
      <use xlink:href="#Exo2-Regular-74"/>
      <use xlink:href="#Exo2-Regular-72" transform="translate(38.099991 0)"/>
      <use xlink:href="#Exo2-Regular-61" transform="translate(78.199982 0)"/>
      <use xlink:href="#Exo2-Regular-69" transform="translate(133.099976 0)"/>
      <use xlink:href="#Exo2-Regular-6e" transform="translate(157.899963 0)"/>
      <use xlink:href="#Exo2-Regular-20" transform="translate(215.999954 0)"/>
      <use xlink:href="#Exo2-Regular-69" transform="translate(238.299942 0)"/>
      <use xlink:href="#Exo2-Regular-6f" transform="translate(263.09993 0)"/>
      <use xlink:href="#Exo2-Regular-75" transform="translate(319.899918 0)"/>
      <use xlink:href="#Exo2-Regular-5f" transform="translate(376.899902 0)"/>
      <use xlink:href="#Exo2-Regular-73" transform="translate(420.69989 0)"/>
      <use xlink:href="#Exo2-Regular-63" transform="translate(471.499878 0)"/>
      <use xlink:href="#Exo2-Regular-6f" transform="translate(520.399872 0)"/>
      <use xlink:href="#Exo2-Regular-72" transform="translate(577.19986 0)"/>
      <use xlink:href="#Exo2-Regular-65" transform="translate(617.29985 0)"/>
     </g>
    </g>
    <g id="line2d_24">
     <path d="M 342.343125 76.128125 
L 352.343125 76.128125 
L 362.343125 76.128125 
" style="fill: none; stroke: #d62728; stroke-width: 1.5; stroke-linecap: square"/>
    </g>
    <g id="text_21">
     <!-- val iou_score -->
     <g transform="translate(370.343125 79.628125) scale(0.1 -0.1)">
      <use xlink:href="#Exo2-Regular-76"/>
      <use xlink:href="#Exo2-Regular-61" transform="translate(52.999985 0)"/>
      <use xlink:href="#Exo2-Regular-6c" transform="translate(107.899979 0)"/>
      <use xlink:href="#Exo2-Regular-20" transform="translate(137.599976 0)"/>
      <use xlink:href="#Exo2-Regular-69" transform="translate(159.899963 0)"/>
      <use xlink:href="#Exo2-Regular-6f" transform="translate(184.699951 0)"/>
      <use xlink:href="#Exo2-Regular-75" transform="translate(241.499939 0)"/>
      <use xlink:href="#Exo2-Regular-5f" transform="translate(298.499924 0)"/>
      <use xlink:href="#Exo2-Regular-73" transform="translate(342.299911 0)"/>
      <use xlink:href="#Exo2-Regular-63" transform="translate(393.099899 0)"/>
      <use xlink:href="#Exo2-Regular-6f" transform="translate(441.999893 0)"/>
      <use xlink:href="#Exo2-Regular-72" transform="translate(498.799881 0)"/>
      <use xlink:href="#Exo2-Regular-65" transform="translate(538.899872 0)"/>
     </g>
    </g>
   </g>
  </g>
 </g>
 <defs>
  <clipPath id="pa9725c1d62">
   <rect x="25.85" y="21.6" width="420.59" height="293.72"/>
  </clipPath>
 </defs>
</svg>
