<?xml version="1.0" encoding="utf-8" standalone="no"?>
<!DOCTYPE svg PUBLIC "-//W3C//DTD SVG 1.1//EN"
  "http://www.w3.org/Graphics/SVG/1.1/DTD/svg11.dtd">
<svg xmlns:xlink="http://www.w3.org/1999/xlink" width="452.795936pt" height="338.20625pt" viewBox="0 0 452.795936 338.20625" xmlns="http://www.w3.org/2000/svg" version="1.1">
 <metadata>
  <rdf:RDF xmlns:dc="http://purl.org/dc/elements/1.1/" xmlns:cc="http://creativecommons.org/ns#" xmlns:rdf="http://www.w3.org/1999/02/22-rdf-syntax-ns#">
   <cc:Work>
    <dc:type rdf:resource="http://purl.org/dc/dcmitype/StillImage"/>
    <dc:date>2025-07-15T19:37:40.597856</dc:date>
    <dc:format>image/svg+xml</dc:format>
    <dc:creator>
     <cc:Agent>
      <dc:title>Matplotlib v3.10.0, https://matplotlib.org/</dc:title>
     </cc:Agent>
    </dc:creator>
   </cc:Work>
  </rdf:RDF>
 </metadata>
 <defs>
  <style type="text/css">*{stroke-linejoin: round; stroke-linecap: butt}</style>
 </defs>
 <g id="figure_1">
  <g id="patch_1">
   <path d="M 0 338.20625 
L 452.795936 338.20625 
L 452.795936 0 
L 0 0 
z
" style="fill: #ffffff"/>
  </g>
  <g id="axes_1">
   <g id="patch_2">
    <path d="M 38.859375 299.678125 
L 444.480389 299.678125 
L 444.480389 21.804375 
L 38.859375 21.804375 
z
" style="fill: #ffffff"/>
   </g>
   <g id="matplotlib.axis_1">
    <g id="xtick_1">
     <g id="line2d_1">
      <defs>
       <path id="m72178e1931" d="M 0 0 
L 0 3.5 
" style="stroke: #000000; stroke-width: 0.8"/>
      </defs>
      <g>
       <use xlink:href="#m72178e1931" x="57.296694" y="299.678125" style="stroke: #000000; stroke-width: 0.8"/>
      </g>
     </g>
     <g id="text_1">
      <!-- 0 -->
      <g transform="translate(54.28185 313.678125) scale(0.1 -0.1)">
       <defs>
        <path id="Exo2-Regular-30" d="M 1926 4499 
Q 2496 4499 2829 4262 
Q 3162 4026 3306 3520 
Q 3450 3014 3450 2208 
Q 3450 1402 3306 896 
Q 3162 390 2829 153 
Q 2496 -83 1926 -83 
Q 1363 -83 1030 153 
Q 698 390 554 896 
Q 410 1402 410 2208 
Q 410 3014 554 3520 
Q 698 4026 1030 4262 
Q 1363 4499 1926 4499 
z
M 1926 4006 
Q 1651 4006 1465 3907 
Q 1280 3808 1168 3597 
Q 1056 3386 1008 3043 
Q 960 2701 960 2208 
Q 960 1722 1008 1376 
Q 1056 1030 1168 819 
Q 1280 608 1465 509 
Q 1651 410 1926 410 
Q 2202 410 2390 509 
Q 2579 608 2691 819 
Q 2803 1030 2851 1376 
Q 2899 1722 2899 2208 
Q 2899 2701 2851 3043 
Q 2803 3386 2691 3597 
Q 2579 3808 2390 3907 
Q 2202 4006 1926 4006 
z
" transform="scale(0.015625)"/>
       </defs>
       <use xlink:href="#Exo2-Regular-30"/>
      </g>
     </g>
    </g>
    <g id="xtick_2">
     <g id="line2d_2">
      <g>
       <use xlink:href="#m72178e1931" x="99.844353" y="299.678125" style="stroke: #000000; stroke-width: 0.8"/>
      </g>
     </g>
     <g id="text_2">
      <!-- 3 -->
      <g transform="translate(97.064665 313.678125) scale(0.1 -0.1)">
       <defs>
        <path id="Exo2-Regular-33" d="M 1651 4499 
Q 2138 4499 2435 4406 
Q 2733 4314 2873 4090 
Q 3014 3866 3014 3475 
Q 3014 3194 2956 2960 
Q 2899 2726 2761 2569 
Q 2624 2413 2368 2362 
L 2368 2336 
Q 2803 2266 2966 1974 
Q 3130 1683 3136 1229 
Q 3142 781 3008 489 
Q 2874 198 2566 57 
Q 2259 -83 1734 -83 
Q 1382 -83 1027 -48 
Q 672 -13 333 32 
L 371 486 
Q 589 467 790 451 
Q 992 435 1190 428 
Q 1389 422 1594 422 
Q 1952 422 2166 502 
Q 2381 582 2480 774 
Q 2579 966 2579 1286 
Q 2579 1530 2512 1712 
Q 2445 1894 2256 1996 
Q 2067 2099 1702 2099 
L 883 2099 
L 883 2541 
L 1702 2541 
Q 1965 2541 2121 2611 
Q 2278 2682 2355 2794 
Q 2432 2906 2454 3050 
Q 2477 3194 2477 3347 
Q 2470 3629 2387 3766 
Q 2304 3904 2109 3952 
Q 1914 4000 1574 4000 
Q 1261 4000 969 3984 
Q 678 3968 454 3949 
L 410 4384 
Q 736 4442 1040 4470 
Q 1344 4499 1651 4499 
z
" transform="scale(0.015625)"/>
       </defs>
       <use xlink:href="#Exo2-Regular-33"/>
      </g>
     </g>
    </g>
    <g id="xtick_3">
     <g id="line2d_3">
      <g>
       <use xlink:href="#m72178e1931" x="142.392011" y="299.678125" style="stroke: #000000; stroke-width: 0.8"/>
      </g>
     </g>
     <g id="text_3">
      <!-- 6 -->
      <g transform="translate(139.531855 313.678125) scale(0.1 -0.1)">
       <defs>
        <path id="Exo2-Regular-36" d="M 2138 4493 
Q 2272 4493 2515 4480 
Q 2758 4467 3027 4397 
L 2976 3987 
Q 2835 4000 2716 4006 
Q 2598 4013 2464 4013 
Q 2330 4013 2138 4013 
Q 1811 4013 1587 3942 
Q 1363 3872 1228 3673 
Q 1094 3475 1036 3091 
Q 979 2707 979 2080 
Q 979 1600 1004 1273 
Q 1030 947 1123 758 
Q 1216 570 1405 486 
Q 1594 403 1920 403 
Q 2298 403 2480 521 
Q 2662 640 2716 870 
Q 2771 1101 2771 1427 
Q 2771 1792 2704 2009 
Q 2637 2227 2457 2326 
Q 2278 2426 1952 2426 
Q 1741 2426 1561 2374 
Q 1382 2323 1196 2192 
Q 1011 2061 768 1824 
L 742 2106 
Q 954 2406 1146 2576 
Q 1338 2746 1565 2813 
Q 1792 2880 2099 2880 
Q 2566 2880 2828 2739 
Q 3091 2598 3200 2281 
Q 3309 1965 3309 1427 
Q 3309 1088 3257 809 
Q 3206 531 3059 332 
Q 2912 134 2637 28 
Q 2362 -77 1914 -77 
Q 1446 -77 1152 28 
Q 858 134 701 384 
Q 544 634 483 1053 
Q 422 1472 422 2099 
Q 422 2880 528 3353 
Q 634 3827 845 4073 
Q 1056 4320 1379 4406 
Q 1702 4493 2138 4493 
z
" transform="scale(0.015625)"/>
       </defs>
       <use xlink:href="#Exo2-Regular-36"/>
      </g>
     </g>
    </g>
    <g id="xtick_4">
     <g id="line2d_4">
      <g>
       <use xlink:href="#m72178e1931" x="184.93967" y="299.678125" style="stroke: #000000; stroke-width: 0.8"/>
      </g>
     </g>
     <g id="text_4">
      <!-- 9 -->
      <g transform="translate(182.079514 313.678125) scale(0.1 -0.1)">
       <defs>
        <path id="Exo2-Regular-39" d="M 1766 4493 
Q 2246 4493 2537 4381 
Q 2829 4269 2976 4013 
Q 3123 3757 3171 3328 
Q 3219 2899 3219 2259 
Q 3219 1517 3123 1056 
Q 3027 595 2825 348 
Q 2624 102 2297 12 
Q 1971 -77 1510 -77 
Q 1363 -77 1110 -64 
Q 858 -51 557 19 
L 608 435 
Q 762 422 883 416 
Q 1005 410 1149 410 
Q 1293 410 1510 410 
Q 1843 410 2067 486 
Q 2291 563 2425 764 
Q 2560 966 2617 1331 
Q 2675 1696 2675 2272 
Q 2675 2778 2652 3114 
Q 2630 3450 2547 3648 
Q 2464 3846 2278 3929 
Q 2093 4013 1760 4013 
Q 1395 4013 1206 3891 
Q 1018 3770 954 3539 
Q 890 3309 890 2976 
Q 890 2656 957 2435 
Q 1024 2214 1203 2099 
Q 1382 1984 1696 1984 
Q 1907 1984 2083 2038 
Q 2259 2093 2444 2224 
Q 2630 2355 2874 2586 
L 2899 2310 
Q 2694 2010 2499 1840 
Q 2304 1670 2080 1603 
Q 1856 1536 1549 1536 
Q 1094 1536 832 1721 
Q 570 1907 461 2233 
Q 352 2560 352 2976 
Q 352 3482 483 3818 
Q 614 4154 924 4323 
Q 1235 4493 1766 4493 
z
" transform="scale(0.015625)"/>
       </defs>
       <use xlink:href="#Exo2-Regular-39"/>
      </g>
     </g>
    </g>
    <g id="xtick_5">
     <g id="line2d_5">
      <g>
       <use xlink:href="#m72178e1931" x="227.487329" y="299.678125" style="stroke: #000000; stroke-width: 0.8"/>
      </g>
     </g>
     <g id="text_5">
      <!-- 12 -->
      <g transform="translate(222.687329 313.678125) scale(0.1 -0.1)">
       <defs>
        <path id="Exo2-Regular-31" d="M 1830 4416 
L 1830 0 
L 1267 0 
L 1267 3501 
Q 1267 3597 1273 3693 
Q 1280 3789 1299 3885 
L 218 3546 
L 141 3962 
L 1267 4416 
L 1830 4416 
z
" transform="scale(0.015625)"/>
        <path id="Exo2-Regular-32" d="M 1734 4493 
Q 2157 4493 2461 4422 
Q 2765 4352 2928 4147 
Q 3091 3942 3091 3539 
Q 3091 3264 3017 3021 
Q 2944 2778 2771 2518 
Q 2598 2259 2304 1933 
L 1037 518 
Q 1203 531 1392 537 
Q 1581 544 1754 544 
L 3251 544 
L 3251 0 
L 352 0 
L 352 352 
Q 352 422 371 483 
Q 390 544 435 595 
L 1715 2042 
Q 2138 2496 2336 2848 
Q 2534 3200 2522 3514 
Q 2515 3731 2416 3830 
Q 2317 3930 2134 3962 
Q 1952 3994 1696 3994 
Q 1491 3994 1305 3987 
Q 1120 3981 912 3958 
Q 704 3936 429 3891 
L 390 4326 
Q 691 4397 918 4432 
Q 1146 4467 1341 4480 
Q 1536 4493 1734 4493 
z
" transform="scale(0.015625)"/>
       </defs>
       <use xlink:href="#Exo2-Regular-31"/>
       <use xlink:href="#Exo2-Regular-32" transform="translate(39.799988 0)"/>
      </g>
     </g>
    </g>
    <g id="xtick_6">
     <g id="line2d_6">
      <g>
       <use xlink:href="#m72178e1931" x="270.034988" y="299.678125" style="stroke: #000000; stroke-width: 0.8"/>
      </g>
     </g>
     <g id="text_6">
      <!-- 15 -->
      <g transform="translate(265.365457 313.678125) scale(0.1 -0.1)">
       <defs>
        <path id="Exo2-Regular-35" d="M 2944 4416 
L 2918 3936 
L 1062 3936 
L 998 2733 
L 1472 2694 
Q 1907 2662 2211 2579 
Q 2515 2496 2707 2336 
Q 2899 2176 2985 1929 
Q 3072 1683 3072 1325 
Q 3072 1056 3017 806 
Q 2963 557 2812 358 
Q 2662 160 2380 41 
Q 2099 -77 1645 -77 
Q 1382 -77 1036 -38 
Q 691 0 333 83 
L 397 538 
Q 698 486 998 454 
Q 1299 422 1517 422 
Q 1939 422 2150 528 
Q 2362 634 2438 835 
Q 2515 1037 2522 1325 
Q 2528 1632 2448 1808 
Q 2368 1984 2192 2070 
Q 2016 2157 1725 2192 
Q 1434 2227 1011 2253 
L 717 2272 
Q 621 2285 560 2352 
Q 499 2419 506 2522 
L 608 4416 
L 2944 4416 
z
" transform="scale(0.015625)"/>
       </defs>
       <use xlink:href="#Exo2-Regular-31"/>
       <use xlink:href="#Exo2-Regular-35" transform="translate(39.799988 0)"/>
      </g>
     </g>
    </g>
    <g id="xtick_7">
     <g id="line2d_7">
      <g>
       <use xlink:href="#m72178e1931" x="312.582647" y="299.678125" style="stroke: #000000; stroke-width: 0.8"/>
      </g>
     </g>
     <g id="text_7">
      <!-- 18 -->
      <g transform="translate(307.557647 313.678125) scale(0.1 -0.1)">
       <defs>
        <path id="Exo2-Regular-38" d="M 1946 4480 
Q 2368 4480 2640 4409 
Q 2912 4339 3069 4198 
Q 3226 4058 3286 3837 
Q 3347 3616 3347 3315 
Q 3347 3027 3283 2809 
Q 3219 2592 3081 2461 
Q 2944 2330 2720 2304 
L 2720 2278 
Q 3002 2253 3158 2102 
Q 3315 1952 3379 1699 
Q 3443 1446 3443 1101 
Q 3443 698 3321 438 
Q 3200 179 2877 57 
Q 2554 -64 1946 -64 
Q 1350 -64 1024 57 
Q 698 179 570 438 
Q 442 698 442 1101 
Q 442 1446 509 1699 
Q 576 1952 736 2102 
Q 896 2253 1171 2278 
L 1171 2304 
Q 947 2330 806 2461 
Q 666 2592 602 2809 
Q 538 3027 538 3315 
Q 538 3616 602 3837 
Q 666 4058 822 4198 
Q 979 4339 1251 4409 
Q 1523 4480 1946 4480 
z
M 1958 2067 
Q 1658 2067 1466 2028 
Q 1274 1990 1165 1897 
Q 1056 1805 1014 1638 
Q 973 1472 973 1216 
Q 973 922 1053 746 
Q 1133 570 1347 496 
Q 1562 422 1952 422 
Q 2342 422 2547 496 
Q 2752 570 2829 746 
Q 2906 922 2906 1216 
Q 2906 1478 2864 1644 
Q 2822 1811 2720 1904 
Q 2618 1997 2432 2032 
Q 2246 2067 1958 2067 
z
M 1952 4026 
Q 1587 4026 1395 3955 
Q 1203 3885 1129 3718 
Q 1056 3552 1056 3264 
Q 1056 2963 1129 2800 
Q 1203 2637 1398 2576 
Q 1594 2515 1958 2515 
Q 2330 2515 2518 2579 
Q 2707 2643 2771 2806 
Q 2835 2970 2835 3264 
Q 2835 3552 2768 3718 
Q 2701 3885 2509 3955 
Q 2317 4026 1952 4026 
z
" transform="scale(0.015625)"/>
       </defs>
       <use xlink:href="#Exo2-Regular-31"/>
       <use xlink:href="#Exo2-Regular-38" transform="translate(39.799988 0)"/>
      </g>
     </g>
    </g>
    <g id="xtick_8">
     <g id="line2d_8">
      <g>
       <use xlink:href="#m72178e1931" x="355.130305" y="299.678125" style="stroke: #000000; stroke-width: 0.8"/>
      </g>
     </g>
     <g id="text_8">
      <!-- 21 -->
      <g transform="translate(350.330305 313.678125) scale(0.1 -0.1)">
       <use xlink:href="#Exo2-Regular-32"/>
       <use xlink:href="#Exo2-Regular-31" transform="translate(56.199997 0)"/>
      </g>
     </g>
    </g>
    <g id="xtick_9">
     <g id="line2d_9">
      <g>
       <use xlink:href="#m72178e1931" x="397.677964" y="299.678125" style="stroke: #000000; stroke-width: 0.8"/>
      </g>
     </g>
     <g id="text_9">
      <!-- 24 -->
      <g transform="translate(391.792808 313.678125) scale(0.1 -0.1)">
       <defs>
        <path id="Exo2-Regular-34" d="M 2112 4416 
L 877 1805 
Q 819 1677 873 1609 
Q 928 1542 1037 1542 
L 3654 1542 
L 3654 1139 
L 3066 1082 
L 723 1082 
Q 544 1082 422 1184 
Q 301 1286 265 1446 
Q 230 1606 301 1766 
L 1555 4416 
L 2112 4416 
z
M 3085 3571 
L 3085 0 
L 2554 0 
L 2554 2842 
L 2650 3571 
L 3085 3571 
z
" transform="scale(0.015625)"/>
       </defs>
       <use xlink:href="#Exo2-Regular-32"/>
       <use xlink:href="#Exo2-Regular-34" transform="translate(56.199997 0)"/>
      </g>
     </g>
    </g>
    <g id="xtick_10">
     <g id="line2d_10">
      <g>
       <use xlink:href="#m72178e1931" x="440.225623" y="299.678125" style="stroke: #000000; stroke-width: 0.8"/>
      </g>
     </g>
     <g id="text_10">
      <!-- 27 -->
      <g transform="translate(434.855311 313.678125) scale(0.1 -0.1)">
       <defs>
        <path id="Exo2-Regular-37" d="M 2746 4416 
Q 2880 4416 2957 4368 
Q 3034 4320 3056 4233 
Q 3078 4147 3040 4026 
L 1664 0 
L 1101 0 
L 2342 3610 
Q 2374 3699 2406 3779 
Q 2438 3859 2477 3936 
L 275 3936 
L 250 4416 
L 2746 4416 
z
" transform="scale(0.015625)"/>
       </defs>
       <use xlink:href="#Exo2-Regular-32"/>
       <use xlink:href="#Exo2-Regular-37" transform="translate(56.199997 0)"/>
      </g>
     </g>
    </g>
    <g id="text_11">
     <!-- Époques -->
     <g transform="translate(222.205038 328.996875) scale(0.1 -0.1)">
      <defs>
       <path id="Exo2-Regular-c9" d="M 1370 4422 
Q 1690 4422 2013 4422 
Q 2336 4422 2653 4412 
Q 2970 4403 3264 4384 
L 3238 3942 
L 1466 3942 
Q 1267 3942 1174 3843 
Q 1082 3744 1082 3520 
L 1082 896 
Q 1082 672 1174 569 
Q 1267 467 1466 467 
L 3238 467 
L 3264 32 
Q 2970 13 2653 6 
Q 2336 0 2013 -3 
Q 1690 -6 1370 -6 
Q 979 -6 752 202 
Q 525 410 518 762 
L 518 3654 
Q 525 4013 752 4217 
Q 979 4422 1370 4422 
z
M 634 2560 
L 2989 2560 
L 2989 2106 
L 634 2106 
L 634 2560 
z
M 2630 5958 
L 2944 5536 
L 1715 4768 
L 1530 5018 
L 2630 5958 
z
" transform="scale(0.015625)"/>
       <path id="Exo2-Regular-70" d="M 2285 3194 
Q 2854 3194 3104 2774 
Q 3354 2355 3354 1542 
Q 3354 941 3226 585 
Q 3098 230 2838 76 
Q 2579 -77 2176 -77 
Q 1869 -77 1571 6 
Q 1274 90 992 262 
L 1024 589 
Q 1325 506 1555 451 
Q 1786 397 2042 397 
Q 2317 397 2480 493 
Q 2643 589 2720 838 
Q 2797 1088 2797 1542 
Q 2797 1984 2726 2240 
Q 2656 2496 2505 2608 
Q 2355 2720 2106 2720 
Q 1850 2720 1600 2598 
Q 1350 2477 1018 2227 
L 966 2592 
Q 1139 2778 1356 2912 
Q 1574 3046 1814 3120 
Q 2054 3194 2285 3194 
z
M 947 3117 
L 1005 2470 
L 1043 2387 
L 1043 390 
L 1018 314 
Q 1037 134 1040 -32 
Q 1043 -198 1043 -384 
L 1043 -1286 
L 499 -1286 
L 499 3117 
L 947 3117 
z
" transform="scale(0.015625)"/>
       <path id="Exo2-Regular-6f" d="M 1818 3194 
Q 2355 3194 2678 3034 
Q 3002 2874 3142 2512 
Q 3283 2150 3283 1555 
Q 3283 960 3142 598 
Q 3002 237 2678 77 
Q 2355 -83 1818 -83 
Q 1286 -83 963 77 
Q 640 237 496 598 
Q 352 960 352 1555 
Q 352 2150 496 2512 
Q 640 2874 963 3034 
Q 1286 3194 1818 3194 
z
M 1818 2733 
Q 1478 2733 1283 2627 
Q 1088 2522 1005 2266 
Q 922 2010 922 1555 
Q 922 1101 1005 845 
Q 1088 589 1283 483 
Q 1478 378 1818 378 
Q 2157 378 2355 483 
Q 2554 589 2637 845 
Q 2720 1101 2720 1555 
Q 2720 2010 2637 2266 
Q 2554 2522 2355 2627 
Q 2157 2733 1818 2733 
z
" transform="scale(0.015625)"/>
       <path id="Exo2-Regular-71" d="M 1754 3194 
Q 1901 3194 2080 3181 
Q 2259 3168 2451 3139 
Q 2643 3110 2825 3068 
Q 3008 3027 3162 2976 
L 2720 2598 
Q 2554 2650 2381 2682 
Q 2208 2714 2048 2726 
Q 1888 2739 1747 2733 
Q 1440 2726 1254 2620 
Q 1069 2515 989 2252 
Q 909 1990 909 1510 
Q 909 941 1049 669 
Q 1190 397 1600 397 
Q 1894 397 2134 521 
Q 2374 646 2682 858 
L 2752 499 
Q 2554 320 2336 189 
Q 2118 58 1891 -12 
Q 1664 -83 1421 -83 
Q 877 -83 614 307 
Q 352 698 352 1549 
Q 352 1952 419 2259 
Q 486 2566 646 2774 
Q 806 2982 1075 3088 
Q 1344 3194 1754 3194 
z
M 2618 2995 
L 3162 2976 
L 3162 -1286 
L 2618 -1286 
L 2611 -218 
Q 2611 -13 2624 150 
Q 2637 314 2675 486 
L 2618 576 
L 2618 2995 
z
" transform="scale(0.015625)"/>
       <path id="Exo2-Regular-75" d="M 1024 3117 
L 1024 928 
Q 1018 634 1133 512 
Q 1248 390 1517 390 
Q 1779 390 2038 515 
Q 2298 640 2662 877 
L 2733 499 
Q 2368 211 2025 64 
Q 1683 -83 1331 -83 
Q 480 -83 480 774 
L 480 3117 
L 1024 3117 
z
M 3149 3117 
L 3149 0 
L 2714 0 
L 2662 589 
L 2605 685 
L 2605 3117 
L 3149 3117 
z
" transform="scale(0.015625)"/>
       <path id="Exo2-Regular-65" d="M 1779 3194 
Q 2483 3194 2800 2938 
Q 3117 2682 3117 2176 
Q 3123 1760 2944 1526 
Q 2765 1293 2374 1293 
L 557 1293 
L 557 1715 
L 2234 1715 
Q 2445 1715 2509 1859 
Q 2573 2003 2573 2176 
Q 2566 2477 2393 2605 
Q 2221 2733 1805 2733 
Q 1466 2733 1270 2633 
Q 1075 2534 995 2288 
Q 915 2042 915 1600 
Q 915 1101 1014 838 
Q 1114 576 1331 480 
Q 1549 384 1907 384 
Q 2157 384 2454 406 
Q 2752 429 2989 461 
L 3046 96 
Q 2899 38 2684 0 
Q 2470 -38 2243 -57 
Q 2016 -77 1837 -77 
Q 1299 -77 972 86 
Q 646 250 496 611 
Q 346 973 346 1568 
Q 346 2182 496 2537 
Q 646 2893 963 3043 
Q 1280 3194 1779 3194 
z
" transform="scale(0.015625)"/>
       <path id="Exo2-Regular-73" d="M 1536 3194 
Q 1741 3194 1971 3181 
Q 2202 3168 2429 3149 
Q 2656 3130 2848 3098 
L 2803 2701 
Q 2509 2714 2211 2723 
Q 1914 2733 1619 2733 
Q 1331 2739 1164 2720 
Q 998 2701 924 2617 
Q 851 2534 851 2336 
Q 851 2093 966 2016 
Q 1082 1939 1306 1888 
L 2214 1683 
Q 2586 1594 2762 1408 
Q 2938 1222 2938 826 
Q 2938 442 2794 250 
Q 2650 58 2355 -6 
Q 2061 -70 1606 -70 
Q 1440 -70 1110 -57 
Q 781 -45 384 19 
L 422 416 
Q 576 410 749 400 
Q 922 390 1110 390 
Q 1299 390 1498 390 
Q 1850 390 2048 422 
Q 2246 454 2329 547 
Q 2413 640 2413 826 
Q 2413 1056 2278 1133 
Q 2144 1210 1920 1261 
L 1024 1466 
Q 768 1530 614 1635 
Q 461 1741 390 1910 
Q 320 2080 320 2336 
Q 320 2701 448 2886 
Q 576 3072 845 3136 
Q 1114 3200 1536 3194 
z
" transform="scale(0.015625)"/>
      </defs>
      <use xlink:href="#Exo2-Regular-c9"/>
      <use xlink:href="#Exo2-Regular-70" transform="translate(55.999985 0)"/>
      <use xlink:href="#Exo2-Regular-6f" transform="translate(113.999969 0)"/>
      <use xlink:href="#Exo2-Regular-71" transform="translate(170.799957 0)"/>
      <use xlink:href="#Exo2-Regular-75" transform="translate(227.799942 0)"/>
      <use xlink:href="#Exo2-Regular-65" transform="translate(284.799927 0)"/>
      <use xlink:href="#Exo2-Regular-73" transform="translate(338.499924 0)"/>
     </g>
    </g>
   </g>
   <g id="matplotlib.axis_2">
    <g id="ytick_1">
     <g id="line2d_11">
      <defs>
       <path id="m49140fb34e" d="M 0 0 
L -3.5 0 
" style="stroke: #000000; stroke-width: 0.8"/>
      </defs>
      <g>
       <use xlink:href="#m49140fb34e" x="38.859375" y="287.45881" style="stroke: #000000; stroke-width: 0.8"/>
      </g>
     </g>
     <g id="text_12">
      <!-- 0 -->
      <g transform="translate(25.829687 290.95881) scale(0.1 -0.1)">
       <use xlink:href="#Exo2-Regular-30"/>
      </g>
     </g>
    </g>
    <g id="ytick_2">
     <g id="line2d_12">
      <g>
       <use xlink:href="#m49140fb34e" x="38.859375" y="225.712417" style="stroke: #000000; stroke-width: 0.8"/>
      </g>
     </g>
     <g id="text_13">
      <!-- 5 -->
      <g transform="translate(26.5 229.212417) scale(0.1 -0.1)">
       <use xlink:href="#Exo2-Regular-35"/>
      </g>
     </g>
    </g>
    <g id="ytick_3">
     <g id="line2d_13">
      <g>
       <use xlink:href="#m49140fb34e" x="38.859375" y="163.966023" style="stroke: #000000; stroke-width: 0.8"/>
      </g>
     </g>
     <g id="text_14">
      <!-- 10 -->
      <g transform="translate(21.85 167.466023) scale(0.1 -0.1)">
       <use xlink:href="#Exo2-Regular-31"/>
       <use xlink:href="#Exo2-Regular-30" transform="translate(39.799988 0)"/>
      </g>
     </g>
    </g>
    <g id="ytick_4">
     <g id="line2d_14">
      <g>
       <use xlink:href="#m49140fb34e" x="38.859375" y="102.219629" style="stroke: #000000; stroke-width: 0.8"/>
      </g>
     </g>
     <g id="text_15">
      <!-- 15 -->
      <g transform="translate(22.520312 105.719629) scale(0.1 -0.1)">
       <use xlink:href="#Exo2-Regular-31"/>
       <use xlink:href="#Exo2-Regular-35" transform="translate(39.799988 0)"/>
      </g>
     </g>
    </g>
    <g id="ytick_5">
     <g id="line2d_15">
      <g>
       <use xlink:href="#m49140fb34e" x="38.859375" y="40.473236" style="stroke: #000000; stroke-width: 0.8"/>
      </g>
     </g>
     <g id="text_16">
      <!-- 20 -->
      <g transform="translate(20.209375 43.973236) scale(0.1 -0.1)">
       <use xlink:href="#Exo2-Regular-32"/>
       <use xlink:href="#Exo2-Regular-30" transform="translate(56.199997 0)"/>
      </g>
     </g>
    </g>
    <g id="text_17">
     <!-- Valeurs -->
     <g transform="translate(14.2 178.096719) rotate(-90) scale(0.1 -0.1)">
      <defs>
       <path id="Exo2-Regular-56" d="M 3789 4416 
L 2451 160 
Q 2426 96 2368 48 
Q 2310 0 2234 0 
L 1664 0 
Q 1581 0 1523 48 
Q 1466 96 1446 160 
L 109 4416 
L 691 4416 
L 1734 915 
Q 1766 794 1801 675 
Q 1837 557 1862 435 
L 2035 435 
Q 2067 557 2099 678 
Q 2131 800 2170 922 
L 3206 4416 
L 3789 4416 
z
" transform="scale(0.015625)"/>
       <path id="Exo2-Regular-61" d="M 1971 3194 
Q 2317 3194 2557 3101 
Q 2797 3008 2918 2790 
Q 3040 2573 3040 2195 
L 3040 0 
L 2611 0 
L 2528 678 
L 2490 749 
L 2490 2195 
Q 2490 2483 2358 2608 
Q 2227 2733 1856 2733 
Q 1613 2733 1245 2707 
Q 877 2682 518 2650 
L 467 3053 
Q 685 3091 944 3123 
Q 1203 3155 1472 3174 
Q 1741 3194 1971 3194 
z
M 2784 1920 
L 2778 1510 
L 1286 1504 
Q 1062 1498 972 1386 
Q 883 1274 883 1075 
L 883 877 
Q 883 634 998 522 
Q 1114 410 1370 410 
Q 1549 410 1776 477 
Q 2003 544 2233 685 
Q 2464 826 2656 1043 
L 2656 640 
Q 2586 550 2454 432 
Q 2323 314 2140 202 
Q 1958 90 1737 16 
Q 1517 -58 1261 -58 
Q 986 -58 774 41 
Q 563 141 444 336 
Q 326 531 326 813 
L 326 1152 
Q 326 1517 553 1718 
Q 781 1920 1190 1920 
L 2784 1920 
z
" transform="scale(0.015625)"/>
       <path id="Exo2-Regular-6c" d="M 1043 4480 
L 1043 858 
Q 1043 653 1155 547 
Q 1267 442 1472 442 
L 1773 442 
L 1837 26 
Q 1779 0 1673 -19 
Q 1568 -38 1456 -48 
Q 1344 -58 1267 -58 
Q 922 -58 714 147 
Q 506 352 506 736 
L 506 4480 
L 1043 4480 
z
" transform="scale(0.015625)"/>
       <path id="Exo2-Regular-72" d="M 922 3117 
L 992 2522 
L 1043 2426 
L 1043 0 
L 499 0 
L 499 3117 
L 922 3117 
z
M 2451 3194 
L 2387 2682 
L 2208 2682 
Q 1933 2682 1657 2570 
Q 1382 2458 986 2253 
L 941 2592 
Q 1286 2874 1635 3034 
Q 1984 3194 2310 3194 
L 2451 3194 
z
" transform="scale(0.015625)"/>
      </defs>
      <use xlink:href="#Exo2-Regular-56"/>
      <use xlink:href="#Exo2-Regular-61" transform="translate(60.899994 0)"/>
      <use xlink:href="#Exo2-Regular-6c" transform="translate(115.799988 0)"/>
      <use xlink:href="#Exo2-Regular-65" transform="translate(145.499985 0)"/>
      <use xlink:href="#Exo2-Regular-75" transform="translate(199.199982 0)"/>
      <use xlink:href="#Exo2-Regular-72" transform="translate(256.199966 0)"/>
      <use xlink:href="#Exo2-Regular-73" transform="translate(296.299957 0)"/>
     </g>
    </g>
   </g>
   <g id="line2d_16">
    <path d="M 57.296694 283.020706 
L 71.479247 284.286651 
L 85.6618 284.580146 
L 99.844353 284.73155 
L 114.026906 284.913291 
L 128.209459 285.297171 
L 142.392011 285.486531 
L 156.574564 285.577429 
L 170.757117 285.77418 
L 184.93967 285.819545 
L 199.122223 285.907978 
L 213.304776 285.925601 
L 227.487329 286.031151 
L 241.669882 286.073221 
L 255.852435 286.089174 
L 270.034988 286.123127 
L 284.217541 286.148605 
L 298.400094 286.183938 
L 312.582647 286.210346 
L 326.7652 286.218869 
L 340.947753 286.241789 
L 355.130305 286.243882 
L 369.312858 286.275461 
L 383.495411 286.273419 
L 397.677964 286.286236 
L 411.860517 286.306525 
L 426.04307 286.304359 
" clip-path="url(#pcc58f8efa8)" style="fill: none; stroke: #1f77b4; stroke-width: 1.5; stroke-linecap: square"/>
   </g>
   <g id="line2d_17">
    <path d="M 57.296694 258.515056 
L 71.479247 272.559815 
L 85.6618 262.395242 
L 99.844353 34.435 
L 114.026906 261.934904 
L 128.209459 265.559882 
L 142.392011 245.387028 
L 156.574564 243.413692 
L 170.757117 273.698774 
L 184.93967 256.115833 
L 199.122223 267.771316 
L 213.304776 268.883308 
L 227.487329 281.351662 
L 241.669882 282.513363 
L 255.852435 279.211342 
L 270.034988 282.467328 
L 284.217541 261.371672 
L 298.400094 278.397821 
L 312.582647 282.853899 
L 326.7652 266.463671 
L 340.947753 279.51244 
L 355.130305 276.905472 
L 369.312858 282.78656 
L 383.495411 282.669207 
L 397.677964 282.837807 
L 411.860517 282.76442 
L 426.04307 282.823027 
" clip-path="url(#pcc58f8efa8)" style="fill: none; stroke: #ff7f0e; stroke-width: 1.5; stroke-linecap: square"/>
   </g>
   <g id="line2d_18">
    <path d="M 57.296694 280.350462 
L 71.479247 279.368459 
L 85.6618 279.093052 
L 99.844353 278.950991 
L 114.026906 278.787135 
L 128.209459 278.445281 
L 142.392011 278.269251 
L 156.574564 278.184936 
L 170.757117 277.994717 
L 184.93967 277.942818 
L 199.122223 277.865394 
L 213.304776 277.827622 
L 227.487329 277.726898 
L 241.669882 277.689956 
L 255.852435 277.658335 
L 270.034988 277.616281 
L 284.217541 277.594125 
L 298.400094 277.553436 
L 312.582647 277.518776 
L 326.7652 277.500505 
L 340.947753 277.469143 
L 355.130305 277.46614 
L 369.312858 277.43861 
L 383.495411 277.427862 
L 397.677964 277.41692 
L 411.860517 277.401998 
L 426.04307 277.394783 
" clip-path="url(#pcc58f8efa8)" style="fill: none; stroke: #2ca02c; stroke-width: 1.5; stroke-linecap: square"/>
   </g>
   <g id="line2d_19">
    <path d="M 57.296694 285.582086 
L 71.479247 284.050463 
L 85.6618 285.784319 
L 99.844353 287.0475 
L 114.026906 285.13635 
L 128.209459 283.580772 
L 142.392011 286.04556 
L 156.574564 285.836182 
L 170.757117 282.325153 
L 184.93967 285.399773 
L 199.122223 283.428647 
L 213.304776 282.076416 
L 227.487329 279.842113 
L 241.669882 279.126679 
L 255.852435 279.813991 
L 270.034988 278.776383 
L 284.217541 283.430778 
L 298.400094 280.414868 
L 312.582647 278.638636 
L 326.7652 282.172937 
L 340.947753 279.424287 
L 355.130305 280.537472 
L 369.312858 278.465989 
L 383.495411 278.585856 
L 397.677964 278.373532 
L 411.860517 278.318701 
L 426.04307 278.312988 
" clip-path="url(#pcc58f8efa8)" style="fill: none; stroke: #d62728; stroke-width: 1.5; stroke-linecap: square"/>
   </g>
   <g id="line2d_20">
    <path d="M 38.859375 278.247006 
L 444.480389 278.247006 
" clip-path="url(#pcc58f8efa8)" style="fill: none; stroke-dasharray: 5.55,2.4; stroke-dashoffset: 0; stroke: #800080; stroke-width: 1.5"/>
   </g>
   <g id="patch_3">
    <path d="M 38.859375 299.678125 
L 38.859375 21.804375 
" style="fill: none; stroke: #000000; stroke-width: 0.8; stroke-linejoin: miter; stroke-linecap: square"/>
   </g>
   <g id="patch_4">
    <path d="M 444.480389 299.678125 
L 444.480389 21.804375 
" style="fill: none; stroke: #000000; stroke-width: 0.8; stroke-linejoin: miter; stroke-linecap: square"/>
   </g>
   <g id="patch_5">
    <path d="M 38.859375 299.678125 
L 444.480389 299.678125 
" style="fill: none; stroke: #000000; stroke-width: 0.8; stroke-linejoin: miter; stroke-linecap: square"/>
   </g>
   <g id="patch_6">
    <path d="M 38.859375 21.804375 
L 444.480389 21.804375 
" style="fill: none; stroke: #000000; stroke-width: 0.8; stroke-linejoin: miter; stroke-linecap: square"/>
   </g>
   <g id="text_18">
    <!-- FULL_efficientnetb0_FPN_BS_8_LR_0.001 avec augmentation -->
    <g transform="translate(77.068319 15.804375) scale(0.12 -0.12)">
     <defs>
      <path id="Exo2-Regular-46" d="M 1395 4422 
Q 1702 4422 2016 4419 
Q 2330 4416 2637 4409 
Q 2944 4403 3226 4378 
L 3194 3942 
L 1536 3942 
Q 1312 3942 1209 3843 
Q 1107 3744 1107 3520 
L 1107 0 
L 544 0 
L 544 3629 
Q 544 4006 774 4214 
Q 1005 4422 1395 4422 
z
M 653 2496 
L 2950 2496 
L 2950 2042 
L 653 2042 
L 653 2496 
z
" transform="scale(0.015625)"/>
      <path id="Exo2-Regular-55" d="M 3738 4416 
L 3738 1690 
Q 3738 1050 3584 659 
Q 3430 269 3084 93 
Q 2739 -83 2157 -83 
Q 1562 -83 1203 93 
Q 845 269 685 659 
Q 525 1050 525 1690 
L 525 4416 
L 1088 4416 
L 1088 1690 
Q 1088 1216 1187 937 
Q 1286 659 1516 540 
Q 1747 422 2131 422 
Q 2515 422 2742 540 
Q 2970 659 3072 937 
Q 3174 1216 3174 1690 
L 3174 4416 
L 3738 4416 
z
" transform="scale(0.015625)"/>
      <path id="Exo2-Regular-4c" d="M 1101 4416 
L 1101 896 
Q 1101 678 1206 576 
Q 1312 474 1530 474 
L 3123 474 
L 3149 38 
Q 2733 6 2301 0 
Q 1869 -6 1440 -6 
Q 954 -6 749 230 
Q 544 467 544 826 
L 544 4416 
L 1101 4416 
z
" transform="scale(0.015625)"/>
      <path id="Exo2-Regular-5f" d="M 2803 0 
L 2803 -416 
L 0 -416 
L 0 0 
L 2803 0 
z
" transform="scale(0.015625)"/>
      <path id="Exo2-Regular-66" d="M 1651 4589 
Q 1754 4589 1914 4585 
Q 2074 4582 2240 4572 
Q 2406 4563 2528 4544 
L 2483 4141 
L 1843 4141 
Q 1536 4141 1411 4019 
Q 1286 3898 1286 3616 
L 1286 0 
L 742 0 
L 742 3674 
Q 742 3968 832 4169 
Q 922 4371 1120 4480 
Q 1318 4589 1651 4589 
z
M 2285 3117 
L 2285 2688 
L 179 2688 
L 179 3085 
L 774 3117 
L 2285 3117 
z
" transform="scale(0.015625)"/>
      <path id="Exo2-Regular-69" d="M 1062 3117 
L 1062 0 
L 525 0 
L 525 3117 
L 1062 3117 
z
M 922 4442 
Q 1088 4442 1088 4275 
L 1088 3910 
Q 1088 3744 922 3744 
L 666 3744 
Q 499 3744 499 3910 
L 499 4275 
Q 499 4442 666 4442 
L 922 4442 
z
" transform="scale(0.015625)"/>
      <path id="Exo2-Regular-63" d="M 1830 3194 
Q 1971 3194 2144 3181 
Q 2317 3168 2499 3136 
Q 2682 3104 2835 3046 
L 2765 2694 
Q 2554 2714 2320 2723 
Q 2086 2733 1920 2733 
Q 1549 2733 1331 2630 
Q 1114 2528 1018 2272 
Q 922 2016 922 1562 
Q 922 1107 1018 848 
Q 1114 589 1331 486 
Q 1549 384 1920 384 
Q 2016 384 2169 390 
Q 2323 397 2499 409 
Q 2675 422 2835 448 
L 2893 83 
Q 2656 0 2377 -38 
Q 2099 -77 1824 -77 
Q 1286 -77 960 83 
Q 634 243 490 601 
Q 346 960 346 1562 
Q 346 2163 493 2521 
Q 640 2880 966 3037 
Q 1293 3194 1830 3194 
z
" transform="scale(0.015625)"/>
      <path id="Exo2-Regular-6e" d="M 2394 3194 
Q 3238 3194 3238 2336 
L 3238 0 
L 2694 0 
L 2694 2182 
Q 2694 2496 2592 2614 
Q 2490 2733 2246 2733 
Q 1958 2733 1670 2592 
Q 1382 2451 986 2208 
L 960 2598 
Q 1325 2880 1683 3037 
Q 2042 3194 2394 3194 
z
M 960 3117 
L 1005 2522 
L 1043 2426 
L 1043 0 
L 499 0 
L 499 3117 
L 960 3117 
z
" transform="scale(0.015625)"/>
      <path id="Exo2-Regular-74" d="M 1280 4038 
L 1280 858 
Q 1280 634 1376 538 
Q 1472 442 1702 442 
L 2176 442 
L 2240 26 
Q 2138 0 2003 -19 
Q 1869 -38 1741 -48 
Q 1613 -58 1536 -58 
Q 1146 -58 941 160 
Q 736 378 736 787 
L 736 4038 
L 1280 4038 
z
M 2272 3117 
L 2272 2688 
L 173 2688 
L 173 3085 
L 787 3117 
L 2272 3117 
z
" transform="scale(0.015625)"/>
      <path id="Exo2-Regular-62" d="M 2176 3194 
Q 2752 3194 3027 2819 
Q 3302 2445 3302 1568 
Q 3302 1165 3235 857 
Q 3168 550 3011 342 
Q 2854 134 2588 28 
Q 2323 -77 1920 -77 
Q 1760 -77 1574 -64 
Q 1389 -51 1197 -22 
Q 1005 6 822 48 
Q 640 90 486 147 
L 922 518 
Q 1094 467 1264 435 
Q 1434 403 1597 393 
Q 1760 384 1907 384 
Q 2208 390 2390 499 
Q 2573 608 2656 867 
Q 2739 1126 2739 1568 
Q 2739 1997 2675 2249 
Q 2611 2502 2448 2611 
Q 2285 2720 1984 2720 
Q 1728 2720 1497 2582 
Q 1267 2445 966 2208 
L 928 2573 
Q 1120 2778 1321 2915 
Q 1523 3053 1740 3123 
Q 1958 3194 2176 3194 
z
M 1030 4480 
L 1030 3315 
Q 1030 3117 1020 2950 
Q 1011 2784 973 2611 
L 1024 2522 
L 1030 122 
L 486 147 
L 486 4480 
L 1030 4480 
z
" transform="scale(0.015625)"/>
      <path id="Exo2-Regular-50" d="M 2074 4474 
Q 2605 4474 2915 4352 
Q 3226 4230 3360 3932 
Q 3494 3635 3494 3091 
Q 3494 2547 3363 2246 
Q 3232 1946 2934 1827 
Q 2637 1709 2138 1709 
Q 1869 1709 1622 1721 
Q 1376 1734 1171 1756 
Q 966 1779 822 1804 
Q 678 1830 621 1850 
L 640 2195 
Q 979 2195 1344 2195 
Q 1709 2195 2067 2195 
Q 2387 2202 2576 2275 
Q 2765 2349 2845 2544 
Q 2925 2739 2925 3091 
Q 2925 3450 2845 3642 
Q 2765 3834 2576 3910 
Q 2387 3987 2067 3987 
Q 1542 3987 1161 3980 
Q 781 3974 646 3962 
L 557 4416 
Q 800 4442 1011 4454 
Q 1222 4467 1472 4470 
Q 1722 4474 2074 4474 
z
M 1120 4416 
L 1120 0 
L 557 0 
L 557 4416 
L 1120 4416 
z
" transform="scale(0.015625)"/>
      <path id="Exo2-Regular-4e" d="M 3955 4416 
L 3955 224 
Q 3955 0 3738 0 
L 3187 0 
Q 3091 0 3033 45 
Q 2976 90 2938 179 
L 1446 3309 
Q 1389 3437 1312 3597 
Q 1235 3757 1197 3891 
L 1094 3891 
Q 1107 3750 1113 3603 
Q 1120 3456 1120 3309 
L 1120 0 
L 557 0 
L 557 4192 
Q 557 4416 781 4416 
L 1312 4416 
Q 1408 4416 1465 4371 
Q 1523 4326 1562 4237 
L 3008 1184 
Q 3078 1050 3158 880 
Q 3238 710 3309 544 
L 3418 544 
Q 3411 717 3404 883 
Q 3398 1050 3398 1216 
L 3398 4416 
L 3955 4416 
z
" transform="scale(0.015625)"/>
      <path id="Exo2-Regular-42" d="M 1990 4467 
Q 2534 4467 2854 4368 
Q 3174 4269 3318 4019 
Q 3462 3770 3462 3315 
Q 3462 2842 3286 2592 
Q 3110 2342 2714 2304 
L 2714 2278 
Q 3206 2234 3401 1933 
Q 3597 1632 3597 1101 
Q 3597 646 3456 396 
Q 3315 147 3004 48 
Q 2694 -51 2189 -51 
Q 1811 -51 1539 -48 
Q 1267 -45 1036 -32 
Q 806 -19 557 0 
L 646 448 
Q 787 442 1180 435 
Q 1574 429 2099 429 
Q 2451 429 2652 489 
Q 2854 550 2940 716 
Q 3027 883 3027 1197 
Q 3027 1542 2937 1728 
Q 2848 1914 2637 1990 
Q 2426 2067 2061 2074 
L 640 2074 
L 640 2502 
L 2054 2502 
Q 2374 2509 2563 2569 
Q 2752 2630 2835 2793 
Q 2918 2957 2918 3251 
Q 2918 3552 2828 3712 
Q 2739 3872 2531 3929 
Q 2323 3987 1965 3987 
Q 1651 3987 1401 3987 
Q 1152 3987 963 3984 
Q 774 3981 646 3968 
L 557 4416 
Q 781 4442 982 4451 
Q 1184 4461 1424 4464 
Q 1664 4467 1990 4467 
z
M 1107 4416 
L 1107 0 
L 557 0 
L 557 4416 
L 1107 4416 
z
" transform="scale(0.015625)"/>
      <path id="Exo2-Regular-53" d="M 1786 4493 
Q 2099 4486 2432 4460 
Q 2765 4435 3098 4365 
L 3059 3955 
Q 2784 3968 2451 3977 
Q 2118 3987 1811 3987 
Q 1574 3987 1404 3971 
Q 1235 3955 1126 3894 
Q 1018 3834 970 3696 
Q 922 3558 922 3315 
Q 922 2950 1053 2806 
Q 1184 2662 1478 2592 
L 2374 2368 
Q 2886 2246 3075 1942 
Q 3264 1638 3264 1126 
Q 3264 742 3177 505 
Q 3091 269 2912 144 
Q 2733 19 2451 -29 
Q 2170 -77 1786 -77 
Q 1568 -77 1219 -57 
Q 870 -38 416 45 
L 454 461 
Q 832 448 1062 438 
Q 1293 429 1459 429 
Q 1626 429 1805 429 
Q 2144 429 2339 480 
Q 2534 531 2614 684 
Q 2694 838 2694 1139 
Q 2694 1395 2636 1536 
Q 2579 1677 2454 1750 
Q 2330 1824 2138 1869 
L 1222 2099 
Q 742 2221 547 2521 
Q 352 2822 352 3328 
Q 352 3712 438 3945 
Q 525 4179 701 4297 
Q 877 4416 1145 4454 
Q 1414 4493 1786 4493 
z
" transform="scale(0.015625)"/>
      <path id="Exo2-Regular-52" d="M 2080 4474 
Q 2592 4474 2905 4362 
Q 3219 4250 3363 3974 
Q 3507 3699 3507 3200 
Q 3507 2842 3424 2602 
Q 3341 2362 3165 2230 
Q 2989 2099 2694 2061 
L 2694 2029 
Q 2803 2003 2908 1923 
Q 3014 1843 3104 1712 
Q 3194 1581 3238 1395 
L 3667 0 
L 3066 0 
L 2675 1382 
Q 2592 1632 2451 1737 
Q 2310 1843 2086 1843 
Q 1696 1843 1408 1846 
Q 1120 1850 928 1856 
Q 736 1862 621 1862 
L 640 2330 
L 2067 2330 
Q 2394 2336 2582 2406 
Q 2771 2477 2854 2659 
Q 2938 2842 2938 3168 
Q 2938 3494 2854 3670 
Q 2771 3846 2582 3916 
Q 2394 3987 2067 3987 
Q 1542 3987 1161 3980 
Q 781 3974 646 3974 
L 557 4416 
Q 800 4442 1011 4454 
Q 1222 4467 1475 4470 
Q 1728 4474 2080 4474 
z
M 1114 4416 
L 1114 0 
L 557 0 
L 557 4416 
L 1114 4416 
z
" transform="scale(0.015625)"/>
      <path id="Exo2-Regular-2e" d="M 819 755 
Q 934 755 979 710 
Q 1024 666 1024 550 
L 1024 205 
Q 1024 90 979 45 
Q 934 0 819 0 
L 640 0 
Q 531 0 483 45 
Q 435 90 435 205 
L 435 550 
Q 435 666 483 710 
Q 531 755 640 755 
L 819 755 
z
" transform="scale(0.015625)"/>
      <path id="Exo2-Regular-20" transform="scale(0.015625)"/>
      <path id="Exo2-Regular-76" d="M 3270 3117 
L 2131 134 
Q 2106 70 2058 35 
Q 2010 0 1939 0 
L 1446 0 
Q 1382 0 1331 35 
Q 1280 70 1254 134 
L 115 3117 
L 698 3117 
L 1466 934 
Q 1517 800 1561 659 
Q 1606 518 1651 390 
L 1734 390 
Q 1786 525 1834 662 
Q 1882 800 1926 934 
L 2694 3117 
L 3270 3117 
z
" transform="scale(0.015625)"/>
      <path id="Exo2-Regular-67" d="M 1734 3194 
Q 2234 3194 2525 3091 
Q 2816 2989 2941 2771 
Q 3066 2554 3066 2202 
Q 3066 1862 2941 1641 
Q 2816 1421 2521 1315 
Q 2227 1210 1728 1210 
Q 1229 1210 937 1315 
Q 646 1421 521 1638 
Q 397 1856 397 2195 
Q 397 2547 521 2768 
Q 646 2989 940 3091 
Q 1235 3194 1734 3194 
z
M 1728 2778 
Q 1261 2778 1078 2646 
Q 896 2515 896 2202 
Q 896 1894 1078 1760 
Q 1261 1626 1728 1626 
Q 2202 1626 2381 1760 
Q 2560 1894 2560 2202 
Q 2560 2515 2381 2646 
Q 2202 2778 1728 2778 
z
M 3430 3117 
L 3398 2816 
L 2605 2752 
L 2381 3117 
L 3430 3117 
z
M 851 1414 
L 1165 1370 
Q 1056 1274 1017 1136 
Q 979 998 1040 883 
Q 1101 768 1299 736 
L 2464 550 
Q 2906 486 3078 275 
Q 3251 64 3251 -326 
Q 3251 -691 3113 -902 
Q 2976 -1114 2649 -1203 
Q 2323 -1293 1766 -1293 
Q 1344 -1293 1056 -1245 
Q 768 -1197 592 -1085 
Q 416 -973 339 -793 
Q 262 -614 262 -346 
Q 262 -141 323 -3 
Q 384 134 515 243 
Q 646 352 858 454 
L 1242 666 
L 1491 576 
L 1178 339 
Q 1050 243 963 150 
Q 877 58 835 -48 
Q 794 -154 794 -301 
Q 794 -518 877 -633 
Q 960 -749 1171 -790 
Q 1382 -832 1760 -832 
Q 2138 -832 2346 -787 
Q 2554 -742 2637 -627 
Q 2720 -512 2720 -301 
Q 2720 -141 2678 -57 
Q 2637 26 2521 70 
Q 2406 115 2182 147 
L 1062 301 
Q 864 326 745 428 
Q 627 531 582 672 
Q 538 813 557 957 
Q 576 1101 653 1225 
Q 730 1350 851 1414 
z
" transform="scale(0.015625)"/>
      <path id="Exo2-Regular-6d" d="M 4294 3194 
Q 4698 3194 4912 2976 
Q 5126 2758 5126 2336 
L 5126 0 
L 4589 0 
L 4589 2182 
Q 4582 2470 4473 2601 
Q 4365 2733 4102 2733 
Q 3936 2733 3785 2678 
Q 3635 2624 3456 2509 
Q 3277 2394 3021 2208 
L 2989 2592 
Q 3328 2893 3648 3043 
Q 3968 3194 4294 3194 
z
M 947 3117 
L 986 2522 
L 1043 2426 
L 1043 0 
L 499 0 
L 499 3117 
L 947 3117 
z
M 2253 3194 
Q 2650 3194 2861 2979 
Q 3072 2765 3078 2336 
L 3078 0 
L 2554 0 
L 2554 2182 
Q 2554 2483 2432 2608 
Q 2310 2733 2067 2733 
Q 1907 2733 1756 2681 
Q 1606 2630 1424 2515 
Q 1242 2400 979 2208 
L 941 2592 
Q 1280 2893 1600 3043 
Q 1920 3194 2253 3194 
z
" transform="scale(0.015625)"/>
     </defs>
     <use xlink:href="#Exo2-Regular-46"/>
     <use xlink:href="#Exo2-Regular-55" transform="translate(53.899994 0)"/>
     <use xlink:href="#Exo2-Regular-4c" transform="translate(120.499985 0)"/>
     <use xlink:href="#Exo2-Regular-4c" transform="translate(171.899979 0)"/>
     <use xlink:href="#Exo2-Regular-5f" transform="translate(223.299973 0)"/>
     <use xlink:href="#Exo2-Regular-65" transform="translate(267.09996 0)"/>
     <use xlink:href="#Exo2-Regular-66" transform="translate(320.799957 0)"/>
     <use xlink:href="#Exo2-Regular-66" transform="translate(358.799942 0)"/>
     <use xlink:href="#Exo2-Regular-69" transform="translate(396.799927 0)"/>
     <use xlink:href="#Exo2-Regular-63" transform="translate(421.599915 0)"/>
     <use xlink:href="#Exo2-Regular-69" transform="translate(470.499908 0)"/>
     <use xlink:href="#Exo2-Regular-65" transform="translate(495.299896 0)"/>
     <use xlink:href="#Exo2-Regular-6e" transform="translate(548.999893 0)"/>
     <use xlink:href="#Exo2-Regular-74" transform="translate(607.099884 0)"/>
     <use xlink:href="#Exo2-Regular-6e" transform="translate(645.199875 0)"/>
     <use xlink:href="#Exo2-Regular-65" transform="translate(703.299866 0)"/>
     <use xlink:href="#Exo2-Regular-74" transform="translate(756.999863 0)"/>
     <use xlink:href="#Exo2-Regular-62" transform="translate(795.099854 0)"/>
     <use xlink:href="#Exo2-Regular-30" transform="translate(852.099838 0)"/>
     <use xlink:href="#Exo2-Regular-5f" transform="translate(912.399826 0)"/>
     <use xlink:href="#Exo2-Regular-46" transform="translate(956.199814 0)"/>
     <use xlink:href="#Exo2-Regular-50" transform="translate(1010.099808 0)"/>
     <use xlink:href="#Exo2-Regular-4e" transform="translate(1069.099792 0)"/>
     <use xlink:href="#Exo2-Regular-5f" transform="translate(1139.599777 0)"/>
     <use xlink:href="#Exo2-Regular-42" transform="translate(1183.399765 0)"/>
     <use xlink:href="#Exo2-Regular-53" transform="translate(1245.39975 0)"/>
     <use xlink:href="#Exo2-Regular-5f" transform="translate(1301.499741 0)"/>
     <use xlink:href="#Exo2-Regular-38" transform="translate(1345.299728 0)"/>
     <use xlink:href="#Exo2-Regular-5f" transform="translate(1405.999725 0)"/>
     <use xlink:href="#Exo2-Regular-4c" transform="translate(1449.799713 0)"/>
     <use xlink:href="#Exo2-Regular-52" transform="translate(1501.199707 0)"/>
     <use xlink:href="#Exo2-Regular-5f" transform="translate(1562.999695 0)"/>
     <use xlink:href="#Exo2-Regular-30" transform="translate(1606.799683 0)"/>
     <use xlink:href="#Exo2-Regular-2e" transform="translate(1667.09967 0)"/>
     <use xlink:href="#Exo2-Regular-30" transform="translate(1689.999664 0)"/>
     <use xlink:href="#Exo2-Regular-30" transform="translate(1750.299652 0)"/>
     <use xlink:href="#Exo2-Regular-31" transform="translate(1810.59964 0)"/>
     <use xlink:href="#Exo2-Regular-20" transform="translate(1850.399628 0)"/>
     <use xlink:href="#Exo2-Regular-61" transform="translate(1872.699615 0)"/>
     <use xlink:href="#Exo2-Regular-76" transform="translate(1927.599609 0)"/>
     <use xlink:href="#Exo2-Regular-65" transform="translate(1980.599594 0)"/>
     <use xlink:href="#Exo2-Regular-63" transform="translate(2034.299591 0)"/>
     <use xlink:href="#Exo2-Regular-20" transform="translate(2083.199585 0)"/>
     <use xlink:href="#Exo2-Regular-61" transform="translate(2105.499573 0)"/>
     <use xlink:href="#Exo2-Regular-75" transform="translate(2160.399567 0)"/>
     <use xlink:href="#Exo2-Regular-67" transform="translate(2217.399551 0)"/>
     <use xlink:href="#Exo2-Regular-6d" transform="translate(2273.199539 0)"/>
     <use xlink:href="#Exo2-Regular-65" transform="translate(2360.79953 0)"/>
     <use xlink:href="#Exo2-Regular-6e" transform="translate(2414.499527 0)"/>
     <use xlink:href="#Exo2-Regular-74" transform="translate(2472.599518 0)"/>
     <use xlink:href="#Exo2-Regular-61" transform="translate(2510.699509 0)"/>
     <use xlink:href="#Exo2-Regular-74" transform="translate(2565.599503 0)"/>
     <use xlink:href="#Exo2-Regular-69" transform="translate(2603.699493 0)"/>
     <use xlink:href="#Exo2-Regular-6f" transform="translate(2628.499481 0)"/>
     <use xlink:href="#Exo2-Regular-6e" transform="translate(2685.299469 0)"/>
    </g>
   </g>
   <g id="legend_1">
    <g id="patch_7">
     <path d="M 337.283514 99.85125 
L 437.480389 99.85125 
Q 439.480389 99.85125 439.480389 97.85125 
L 439.480389 28.804375 
Q 439.480389 26.804375 437.480389 26.804375 
L 337.283514 26.804375 
Q 335.283514 26.804375 335.283514 28.804375 
L 335.283514 97.85125 
Q 335.283514 99.85125 337.283514 99.85125 
z
" style="fill: #ffffff; opacity: 0.8; stroke: #cccccc; stroke-linejoin: miter"/>
    </g>
    <g id="line2d_21">
     <path d="M 339.283514 34.304375 
L 349.283514 34.304375 
L 359.283514 34.304375 
" style="fill: none; stroke: #1f77b4; stroke-width: 1.5; stroke-linecap: square"/>
    </g>
    <g id="text_19">
     <!-- train loss -->
     <g transform="translate(367.283514 37.804375) scale(0.1 -0.1)">
      <use xlink:href="#Exo2-Regular-74"/>
      <use xlink:href="#Exo2-Regular-72" transform="translate(38.099991 0)"/>
      <use xlink:href="#Exo2-Regular-61" transform="translate(78.199982 0)"/>
      <use xlink:href="#Exo2-Regular-69" transform="translate(133.099976 0)"/>
      <use xlink:href="#Exo2-Regular-6e" transform="translate(157.899963 0)"/>
      <use xlink:href="#Exo2-Regular-20" transform="translate(215.999954 0)"/>
      <use xlink:href="#Exo2-Regular-6c" transform="translate(238.299942 0)"/>
      <use xlink:href="#Exo2-Regular-6f" transform="translate(267.999939 0)"/>
      <use xlink:href="#Exo2-Regular-73" transform="translate(324.799927 0)"/>
      <use xlink:href="#Exo2-Regular-73" transform="translate(375.599915 0)"/>
     </g>
    </g>
    <g id="line2d_22">
     <path d="M 339.283514 48.31375 
L 349.283514 48.31375 
L 359.283514 48.31375 
" style="fill: none; stroke: #ff7f0e; stroke-width: 1.5; stroke-linecap: square"/>
    </g>
    <g id="text_20">
     <!-- val loss -->
     <g transform="translate(367.283514 51.81375) scale(0.1 -0.1)">
      <use xlink:href="#Exo2-Regular-76"/>
      <use xlink:href="#Exo2-Regular-61" transform="translate(52.999985 0)"/>
      <use xlink:href="#Exo2-Regular-6c" transform="translate(107.899979 0)"/>
      <use xlink:href="#Exo2-Regular-20" transform="translate(137.599976 0)"/>
      <use xlink:href="#Exo2-Regular-6c" transform="translate(159.899963 0)"/>
      <use xlink:href="#Exo2-Regular-6f" transform="translate(189.59996 0)"/>
      <use xlink:href="#Exo2-Regular-73" transform="translate(246.399948 0)"/>
      <use xlink:href="#Exo2-Regular-73" transform="translate(297.199936 0)"/>
     </g>
    </g>
    <g id="line2d_23">
     <path d="M 339.283514 62.323125 
L 349.283514 62.323125 
L 359.283514 62.323125 
" style="fill: none; stroke: #2ca02c; stroke-width: 1.5; stroke-linecap: square"/>
    </g>
    <g id="text_21">
     <!-- train IoU_score -->
     <g transform="translate(367.283514 65.823125) scale(0.1 -0.1)">
      <defs>
       <path id="Exo2-Regular-49" d="M 1120 4416 
L 1120 0 
L 557 0 
L 557 4416 
L 1120 4416 
z
" transform="scale(0.015625)"/>
      </defs>
      <use xlink:href="#Exo2-Regular-74"/>
      <use xlink:href="#Exo2-Regular-72" transform="translate(38.099991 0)"/>
      <use xlink:href="#Exo2-Regular-61" transform="translate(78.199982 0)"/>
      <use xlink:href="#Exo2-Regular-69" transform="translate(133.099976 0)"/>
      <use xlink:href="#Exo2-Regular-6e" transform="translate(157.899963 0)"/>
      <use xlink:href="#Exo2-Regular-20" transform="translate(215.999954 0)"/>
      <use xlink:href="#Exo2-Regular-49" transform="translate(238.299942 0)"/>
      <use xlink:href="#Exo2-Regular-6f" transform="translate(264.499939 0)"/>
      <use xlink:href="#Exo2-Regular-55" transform="translate(321.299927 0)"/>
      <use xlink:href="#Exo2-Regular-5f" transform="translate(387.899918 0)"/>
      <use xlink:href="#Exo2-Regular-73" transform="translate(431.699905 0)"/>
      <use xlink:href="#Exo2-Regular-63" transform="translate(482.499893 0)"/>
      <use xlink:href="#Exo2-Regular-6f" transform="translate(531.399887 0)"/>
      <use xlink:href="#Exo2-Regular-72" transform="translate(588.199875 0)"/>
      <use xlink:href="#Exo2-Regular-65" transform="translate(628.299866 0)"/>
     </g>
    </g>
    <g id="line2d_24">
     <path d="M 339.283514 76.3325 
L 349.283514 76.3325 
L 359.283514 76.3325 
" style="fill: none; stroke: #d62728; stroke-width: 1.5; stroke-linecap: square"/>
    </g>
    <g id="text_22">
     <!-- val IoU_score -->
     <g transform="translate(367.283514 79.8325) scale(0.1 -0.1)">
      <use xlink:href="#Exo2-Regular-76"/>
      <use xlink:href="#Exo2-Regular-61" transform="translate(52.999985 0)"/>
      <use xlink:href="#Exo2-Regular-6c" transform="translate(107.899979 0)"/>
      <use xlink:href="#Exo2-Regular-20" transform="translate(137.599976 0)"/>
      <use xlink:href="#Exo2-Regular-49" transform="translate(159.899963 0)"/>
      <use xlink:href="#Exo2-Regular-6f" transform="translate(186.09996 0)"/>
      <use xlink:href="#Exo2-Regular-55" transform="translate(242.899948 0)"/>
      <use xlink:href="#Exo2-Regular-5f" transform="translate(309.499939 0)"/>
      <use xlink:href="#Exo2-Regular-73" transform="translate(353.299927 0)"/>
      <use xlink:href="#Exo2-Regular-63" transform="translate(404.099915 0)"/>
      <use xlink:href="#Exo2-Regular-6f" transform="translate(452.999908 0)"/>
      <use xlink:href="#Exo2-Regular-72" transform="translate(509.799896 0)"/>
      <use xlink:href="#Exo2-Regular-65" transform="translate(549.899887 0)"/>
     </g>
    </g>
    <g id="line2d_25">
     <path d="M 339.283514 90.341875 
L 349.283514 90.341875 
L 359.283514 90.341875 
" style="fill: none; stroke-dasharray: 5.55,2.4; stroke-dashoffset: 0; stroke: #800080; stroke-width: 1.5"/>
    </g>
    <g id="text_23">
     <!-- test IoU=0.746 -->
     <g transform="translate(367.283514 93.841875) scale(0.1 -0.1)">
      <defs>
       <path id="Exo2-Regular-3d" d="M 3277 2752 
L 3277 2349 
L 474 2349 
L 474 2752 
L 3277 2752 
z
M 3277 1402 
L 3277 992 
L 474 992 
L 474 1402 
L 3277 1402 
z
" transform="scale(0.015625)"/>
      </defs>
      <use xlink:href="#Exo2-Regular-74"/>
      <use xlink:href="#Exo2-Regular-65" transform="translate(38.099991 0)"/>
      <use xlink:href="#Exo2-Regular-73" transform="translate(91.799988 0)"/>
      <use xlink:href="#Exo2-Regular-74" transform="translate(142.599976 0)"/>
      <use xlink:href="#Exo2-Regular-20" transform="translate(180.699966 0)"/>
      <use xlink:href="#Exo2-Regular-49" transform="translate(202.999954 0)"/>
      <use xlink:href="#Exo2-Regular-6f" transform="translate(229.199951 0)"/>
      <use xlink:href="#Exo2-Regular-55" transform="translate(285.999939 0)"/>
      <use xlink:href="#Exo2-Regular-3d" transform="translate(352.59993 0)"/>
      <use xlink:href="#Exo2-Regular-30" transform="translate(411.099915 0)"/>
      <use xlink:href="#Exo2-Regular-2e" transform="translate(471.399902 0)"/>
      <use xlink:href="#Exo2-Regular-37" transform="translate(494.299896 0)"/>
      <use xlink:href="#Exo2-Regular-34" transform="translate(545.499893 0)"/>
      <use xlink:href="#Exo2-Regular-36" transform="translate(606.999878 0)"/>
     </g>
    </g>
   </g>
  </g>
 </g>
 <defs>
  <clipPath id="pcc58f8efa8">
   <rect x="38.859375" y="21.804375" width="405.621014" height="277.87375"/>
  </clipPath>
 </defs>
</svg>
